# Export of SampleScene
# from Aaro4130 OBJ Exporter v2.0
mtllib aplus9.mtl
v -318.5842 -163.9417 1448.659
v -318.0046 -164.0946 1448.686
v -317.4195 -159.6611 1447.905
v -316.8399 -159.814 1447.932
v -317.4195 -159.7652 1447.314
v -316.8399 -159.9182 1447.341
v -318.5842 -164.0459 1448.068
v -318.0046 -164.1988 1448.095
v -317.4195 -159.6611 1447.905
v -316.8399 -159.814 1447.932
v -317.4195 -159.7652 1447.314
v -316.8399 -159.9182 1447.341
v -318.5842 -164.0459 1448.068
v -318.5842 -163.9417 1448.659
v -318.0046 -164.0946 1448.686
v -318.0046 -164.1988 1448.095
v -318.0046 -164.0946 1448.686
v -316.8399 -159.814 1447.932
v -316.8399 -159.9182 1447.341
v -318.0046 -164.1988 1448.095
v -318.5842 -164.0459 1448.068
v -317.4195 -159.7652 1447.314
v -317.4195 -159.6611 1447.905
v -318.5842 -163.9417 1448.659
vn 2.440519E-10 0.02275215 0.1290338
vn 2.440519E-10 0.02275215 0.1290338
vn 2.440519E-10 0.02275215 0.1290338
vn 2.440519E-10 0.02275215 0.1290338
vn 0.254337 0.9347781 -0.1648267
vn 0.254337 0.9347781 -0.1648267
vn -2.440519E-10 -0.02275215 -0.1290338
vn -2.440519E-10 -0.02275215 -0.1290338
vn 0.254337 0.9347781 -0.1648267
vn 0.254337 0.9347781 -0.1648267
vn -2.440519E-10 -0.02275215 -0.1290338
vn -2.440519E-10 -0.02275215 -0.1290338
vn -0.254337 -0.9347781 0.1648267
vn -0.254337 -0.9347781 0.1648267
vn -0.254337 -0.9347781 0.1648267
vn -0.254337 -0.9347781 0.1648267
vn 0.1265598 -0.0333964 0.005888689
vn 0.1265598 -0.0333964 0.005888689
vn 0.1265598 -0.0333964 0.005888689
vn 0.1265598 -0.0333964 0.005888689
vn -0.1265598 0.0333964 -0.005888689
vn -0.1265598 0.0333964 -0.005888689
vn -0.1265598 0.0333964 -0.005888689
vn -0.1265598 0.0333964 -0.005888689
vt 0 0
vt 1 0
vt 0 1
vt 1 1
vt 0 1
vt 1 1
vt 0 1
vt 1 1
vt 0 0
vt 1 0
vt 0 0
vt 1 0
vt 0 0
vt 0 1
vt 1 1
vt 1 0
vt 0 0
vt 0 1
vt 1 1
vt 1 0
vt 0 0
vt 0 1
vt 1 1
vt 1 0
usemtl New Material
f 4/4/4 3/3/3 1/1/1
f 2/2/2 4/4/4 1/1/1
f 6/6/6 5/5/5 9/9/9
f 10/10/10 6/6/6 9/9/9
f 8/8/8 7/7/7 11/11/11
f 12/12/12 8/8/8 11/11/11
f 15/15/15 14/14/14 13/13/13
f 16/16/16 15/15/15 13/13/13
f 19/19/19 18/18/18 17/17/17
f 20/20/20 19/19/19 17/17/17
f 23/23/23 22/22/22 21/21/21
f 24/24/24 23/23/23 21/21/21
v -317.4226 -159.9575 1447.957
v -316.5376 -159.9575 1447.957
v -317.4226 -159.662 1447.905
v -316.5376 -159.662 1447.905
v -317.4226 -159.7662 1447.314
v -316.5376 -159.7662 1447.314
v -317.4226 -160.0617 1447.366
v -316.5376 -160.0617 1447.366
v -317.4226 -159.662 1447.905
v -316.5376 -159.662 1447.905
v -317.4226 -159.7662 1447.314
v -316.5376 -159.7662 1447.314
v -317.4226 -160.0617 1447.366
v -317.4226 -159.9575 1447.957
v -316.5376 -159.9575 1447.957
v -316.5376 -160.0617 1447.366
v -316.5376 -159.9575 1447.957
v -316.5376 -159.662 1447.905
v -316.5376 -159.7662 1447.314
v -316.5376 -160.0617 1447.366
v -317.4226 -160.0617 1447.366
v -317.4226 -159.7662 1447.314
v -317.4226 -159.662 1447.905
v -317.4226 -159.9575 1447.957
vn 0 0.09382109 0.5320856
vn 0 0.09382109 0.5320856
vn 0 0.09382109 0.5320856
vn 0 0.09382109 0.5320856
vn 0 0.2660428 -0.04691054
vn 0 0.2660428 -0.04691054
vn 0 -0.09382109 -0.5320856
vn 0 -0.09382109 -0.5320856
vn 0 0.2660428 -0.04691054
vn 0 0.2660428 -0.04691054
vn 0 -0.09382109 -0.5320856
vn 0 -0.09382109 -0.5320856
vn 0 -0.2660428 0.04691054
vn 0 -0.2660428 0.04691054
vn 0 -0.2660428 0.04691054
vn 0 -0.2660428 0.04691054
vn 0.7969335 0 0
vn 0.7969335 0 0
vn 0.7969335 0 0
vn 0.7969335 0 0
vn -0.7969335 0 0
vn -0.7969335 0 0
vn -0.7969335 0 0
vn -0.7969335 0 0
vt 0 0
vt 1 0
vt 0 1
vt 1 1
vt 0 1
vt 1 1
vt 0 1
vt 1 1
vt 0 0
vt 1 0
vt 0 0
vt 1 0
vt 0 0
vt 0 1
vt 1 1
vt 1 0
vt 0 0
vt 0 1
vt 1 1
vt 1 0
vt 0 0
vt 0 1
vt 1 1
vt 1 0
usemtl New Material
f 28/28/28 27/27/27 25/25/25
f 26/26/26 28/28/28 25/25/25
f 30/30/30 29/29/29 33/33/33
f 34/34/34 30/30/30 33/33/33
f 32/32/32 31/31/31 35/35/35
f 36/36/36 32/32/32 35/35/35
f 39/39/39 38/38/38 37/37/37
f 40/40/40 39/39/39 37/37/37
f 43/43/43 42/42/42 41/41/41
f 44/44/44 43/43/43 41/41/41
f 47/47/47 46/46/46 45/45/45
f 48/48/48 47/47/47 45/45/45
v -317.8801 -162.6371 1448.429
v -316.0801 -162.6371 1448.429
v -317.8801 -162.0462 1448.325
v -316.0801 -162.0462 1448.325
v -317.8801 -162.1504 1447.734
v -316.0801 -162.1504 1447.734
v -317.8801 -162.7413 1447.838
v -316.0801 -162.7413 1447.838
v -317.8801 -162.0462 1448.325
v -316.0801 -162.0462 1448.325
v -317.8801 -162.1504 1447.734
v -316.0801 -162.1504 1447.734
v -317.8801 -162.7413 1447.838
v -317.8801 -162.6371 1448.429
v -316.0801 -162.6371 1448.429
v -316.0801 -162.7413 1447.838
v -316.0801 -162.6371 1448.429
v -316.0801 -162.0462 1448.325
v -316.0801 -162.1504 1447.734
v -316.0801 -162.7413 1447.838
v -317.8801 -162.7413 1447.838
v -317.8801 -162.1504 1447.734
v -317.8801 -162.0462 1448.325
v -317.8801 -162.6371 1448.429
vn 0 0.05235691 0.2969307
vn 0 0.05235691 0.2969307
vn 0 0.05235691 0.2969307
vn 0 0.05235691 0.2969307
vn 0 0.2969307 -0.05235691
vn 0 0.2969307 -0.05235691
vn 0 -0.05235691 -0.2969307
vn 0 -0.05235691 -0.2969307
vn 0 0.2969307 -0.05235691
vn 0 0.2969307 -0.05235691
vn 0 -0.05235691 -0.2969307
vn 0 -0.05235691 -0.2969307
vn 0 -0.2969307 0.05235691
vn 0 -0.2969307 0.05235691
vn 0 -0.2969307 0.05235691
vn 0 -0.2969307 0.05235691
vn 0.904534 0 0
vn 0.904534 0 0
vn 0.904534 0 0
vn 0.904534 0 0
vn -0.904534 0 0
vn -0.904534 0 0
vn -0.904534 0 0
vn -0.904534 0 0
vt 0 0
vt 1 0
vt 0 1
vt 1 1
vt 0 1
vt 1 1
vt 0 1
vt 1 1
vt 0 0
vt 1 0
vt 0 0
vt 1 0
vt 0 0
vt 0 1
vt 1 1
vt 1 0
vt 0 0
vt 0 1
vt 1 1
vt 1 0
vt 0 0
vt 0 1
vt 1 1
vt 1 0
usemtl New Material
f 52/52/52 51/51/51 49/49/49
f 50/50/50 52/52/52 49/49/49
f 54/54/54 53/53/53 57/57/57
f 58/58/58 54/54/54 57/57/57
f 56/56/56 55/55/55 59/59/59
f 60/60/60 56/56/56 59/59/59
f 63/63/63 62/62/62 61/61/61
f 64/64/64 63/63/63 61/61/61
f 67/67/67 66/66/66 65/65/65
f 68/68/68 67/67/67 65/65/65
f 71/71/71 70/70/70 69/69/69
f 72/72/72 71/71/71 69/69/69
v -315.9495 -164.0946 1448.686
v -315.3699 -163.9417 1448.659
v -317.1142 -159.814 1447.932
v -316.5346 -159.6611 1447.905
v -317.1142 -159.9182 1447.341
v -316.5346 -159.7652 1447.314
v -315.9495 -164.1988 1448.095
v -315.3699 -164.0459 1448.068
v -317.1142 -159.814 1447.932
v -316.5346 -159.6611 1447.905
v -317.1142 -159.9182 1447.341
v -316.5346 -159.7652 1447.314
v -315.9495 -164.1988 1448.095
v -315.9495 -164.0946 1448.686
v -315.3699 -163.9417 1448.659
v -315.3699 -164.0459 1448.068
v -315.3699 -163.9417 1448.659
v -316.5346 -159.6611 1447.905
v -316.5346 -159.7652 1447.314
v -315.3699 -164.0459 1448.068
v -315.9495 -164.1988 1448.095
v -317.1142 -159.9182 1447.341
v -317.1142 -159.814 1447.932
v -315.9495 -164.0946 1448.686
vn -4.881037E-10 0.02275215 0.1290338
vn -4.881037E-10 0.02275215 0.1290338
vn -4.881037E-10 0.02275215 0.1290338
vn -4.881037E-10 0.02275215 0.1290338
vn -0.2543371 0.934778 -0.1648267
vn -0.2543371 0.934778 -0.1648267
vn 4.881037E-10 -0.02275215 -0.1290338
vn 4.881037E-10 -0.02275215 -0.1290338
vn -0.2543371 0.934778 -0.1648267
vn -0.2543371 0.934778 -0.1648267
vn 4.881037E-10 -0.02275215 -0.1290338
vn 4.881037E-10 -0.02275215 -0.1290338
vn 0.2543371 -0.934778 0.1648267
vn 0.2543371 -0.934778 0.1648267
vn 0.2543371 -0.934778 0.1648267
vn 0.2543371 -0.934778 0.1648267
vn 0.1265598 0.03339642 -0.005888693
vn 0.1265598 0.03339642 -0.005888693
vn 0.1265598 0.03339642 -0.005888693
vn 0.1265598 0.03339642 -0.005888693
vn -0.1265598 -0.03339642 0.005888693
vn -0.1265598 -0.03339642 0.005888693
vn -0.1265598 -0.03339642 0.005888693
vn -0.1265598 -0.03339642 0.005888693
vt 0 0
vt 1 0
vt 0 1
vt 1 1
vt 0 1
vt 1 1
vt 0 1
vt 1 1
vt 0 0
vt 1 0
vt 0 0
vt 1 0
vt 0 0
vt 0 1
vt 1 1
vt 1 0
vt 0 0
vt 0 1
vt 1 1
vt 1 0
vt 0 0
vt 0 1
vt 1 1
vt 1 0
usemtl New Material
f 76/76/76 75/75/75 73/73/73
f 74/74/74 76/76/76 73/73/73
f 78/78/78 77/77/77 81/81/81
f 82/82/82 78/78/78 81/81/81
f 80/80/80 79/79/79 83/83/83
f 84/84/84 80/80/80 83/83/83
f 87/87/87 86/86/86 85/85/85
f 88/88/88 87/87/87 85/85/85
f 91/91/91 90/90/90 89/89/89
f 92/92/92 91/91/91 89/89/89
f 95/95/95 94/94/94 93/93/93
f 96/96/96 95/95/95 93/93/93
v -320.358 -161.157 1448.168
v -318.558 -161.157 1448.168
v -320.358 -160.5661 1448.064
v -318.558 -160.5661 1448.064
v -320.358 -160.6703 1447.473
v -318.558 -160.6703 1447.473
v -320.358 -161.2611 1447.577
v -318.558 -161.2611 1447.577
v -320.358 -160.5661 1448.064
v -318.558 -160.5661 1448.064
v -320.358 -160.6703 1447.473
v -318.558 -160.6703 1447.473
v -320.358 -161.2611 1447.577
v -320.358 -161.157 1448.168
v -318.558 -161.157 1448.168
v -318.558 -161.2611 1447.577
v -318.558 -161.157 1448.168
v -318.558 -160.5661 1448.064
v -318.558 -160.6703 1447.473
v -318.558 -161.2611 1447.577
v -320.358 -161.2611 1447.577
v -320.358 -160.6703 1447.473
v -320.358 -160.5661 1448.064
v -320.358 -161.157 1448.168
vn 0 0.05235691 0.2969307
vn 0 0.05235691 0.2969307
vn 0 0.05235691 0.2969307
vn 0 0.05235691 0.2969307
vn 0 0.2969307 -0.05235691
vn 0 0.2969307 -0.05235691
vn 0 -0.05235691 -0.2969307
vn 0 -0.05235691 -0.2969307
vn 0 0.2969307 -0.05235691
vn 0 0.2969307 -0.05235691
vn 0 -0.05235691 -0.2969307
vn 0 -0.05235691 -0.2969307
vn 0 -0.2969307 0.05235691
vn 0 -0.2969307 0.05235691
vn 0 -0.2969307 0.05235691
vn 0 -0.2969307 0.05235691
vn 0.904534 0 0
vn 0.904534 0 0
vn 0.904534 0 0
vn 0.904534 0 0
vn -0.904534 0 0
vn -0.904534 0 0
vn -0.904534 0 0
vn -0.904534 0 0
vt 0 0
vt 1 0
vt 0 1
vt 1 1
vt 0 1
vt 1 1
vt 0 1
vt 1 1
vt 0 0
vt 1 0
vt 0 0
vt 1 0
vt 0 0
vt 0 1
vt 1 1
vt 1 0
vt 0 0
vt 0 1
vt 1 1
vt 1 0
vt 0 0
vt 0 1
vt 1 1
vt 1 0
usemtl New Material
f 100/100/100 99/99/99 97/97/97
f 98/98/98 100/100/100 97/97/97
f 102/102/102 101/101/101 105/105/105
f 106/106/106 102/102/102 105/105/105
f 104/104/104 103/103/103 107/107/107
f 108/108/108 104/104/104 107/107/107
f 111/111/111 110/110/110 109/109/109
f 112/112/112 111/111/111 109/109/109
f 115/115/115 114/114/114 113/113/113
f 116/116/116 115/115/115 113/113/113
f 119/119/119 118/118/118 117/117/117
f 120/120/120 119/119/119 117/117/117
v -319.758 -159.9752 1447.96
v -319.758 -161.7478 1448.273
v -319.158 -159.9752 1447.96
v -319.158 -161.7478 1448.273
v -319.158 -160.0794 1447.369
v -319.158 -161.852 1447.682
v -319.758 -160.0794 1447.369
v -319.758 -161.852 1447.682
v -319.158 -159.9752 1447.96
v -319.158 -161.7478 1448.273
v -319.158 -160.0794 1447.369
v -319.158 -161.852 1447.682
v -319.758 -160.0794 1447.369
v -319.758 -159.9752 1447.96
v -319.758 -161.7478 1448.273
v -319.758 -161.852 1447.682
v -319.758 -161.7478 1448.273
v -319.158 -161.7478 1448.273
v -319.158 -161.852 1447.682
v -319.758 -161.852 1447.682
v -319.758 -160.0794 1447.369
v -319.158 -160.0794 1447.369
v -319.158 -159.9752 1447.96
v -319.758 -159.9752 1447.96
vn 0 0.05235692 0.2969306
vn 0 0.05235692 0.2969306
vn 0 0.05235692 0.2969306
vn 0 0.05235692 0.2969306
vn 0.3015114 -5.279121E-08 0
vn 0.3015114 -5.279121E-08 0
vn 0 -0.05235692 -0.2969306
vn 0 -0.05235692 -0.2969306
vn 0.3015114 -5.279121E-08 0
vn 0.3015114 -5.279121E-08 0
vn 0 -0.05235692 -0.2969306
vn 0 -0.05235692 -0.2969306
vn -0.3015114 5.279121E-08 0
vn -0.3015114 5.279121E-08 0
vn -0.3015114 5.279121E-08 0
vn -0.3015114 5.279121E-08 0
vn -1.583736E-07 -0.8907923 0.1570708
vn -1.583736E-07 -0.8907923 0.1570708
vn -1.583736E-07 -0.8907923 0.1570708
vn -1.583736E-07 -0.8907923 0.1570708
vn 1.583736E-07 0.8907923 -0.1570708
vn 1.583736E-07 0.8907923 -0.1570708
vn 1.583736E-07 0.8907923 -0.1570708
vn 1.583736E-07 0.8907923 -0.1570708
vt 0 0
vt 1 0
vt 0 1
vt 1 1
vt 0 1
vt 1 1
vt 0 1
vt 1 1
vt 0 0
vt 1 0
vt 0 0
vt 1 0
vt 0 0
vt 0 1
vt 1 1
vt 1 0
vt 0 0
vt 0 1
vt 1 1
vt 1 0
vt 0 0
vt 0 1
vt 1 1
vt 1 0
usemtl New Material
f 124/124/124 123/123/123 121/121/121
f 122/122/122 124/124/124 121/121/121
f 126/126/126 125/125/125 129/129/129
f 130/130/130 126/126/126 129/129/129
f 128/128/128 127/127/127 131/131/131
f 132/132/132 128/128/128 131/131/131
f 135/135/135 134/134/134 133/133/133
f 136/136/136 135/135/135 133/133/133
f 139/139/139 138/138/138 137/137/137
f 140/140/140 139/139/139 137/137/137
f 143/143/143 142/142/142 141/141/141
f 144/144/144 143/143/143 141/141/141
