# Export of SampleScene
# from Aaro4130 OBJ Exporter v2.0
mtllib aplus13.mtl
v -180.3 3.960001 381.835
v -180.3 3.960001 382.425
v -180.3 4.2 381.835
v -180.3 4.2 382.425
v -179.9 4.2 381.835
v -179.9 4.2 382.425
v -179.9 3.960001 381.835
v -179.9 3.960001 382.425
v -180.3 4.2 381.835
v -180.3 4.2 382.425
v -179.9 4.2 381.835
v -179.9 4.2 382.425
v -179.9 3.960001 381.835
v -180.3 3.960001 381.835
v -180.3 3.960001 382.425
v -179.9 3.960001 382.425
v -180.3 3.960001 382.425
v -180.3 4.2 382.425
v -179.9 4.2 382.425
v -179.9 3.960001 382.425
v -179.9 3.960001 381.835
v -179.9 4.2 381.835
v -180.3 4.2 381.835
v -180.3 3.960001 381.835
vn -0.5318228 0 -6.339821E-08
vn -0.5318228 0 -6.339821E-08
vn -0.5318228 0 -6.339821E-08
vn -0.5318228 0 -6.339821E-08
vn 0 0.3190936 0
vn 0 0.3190936 0
vn 0.5318228 0 6.339821E-08
vn 0.5318228 0 6.339821E-08
vn 0 0.3190936 0
vn 0 0.3190936 0
vn 0.5318228 0 6.339821E-08
vn 0.5318228 0 6.339821E-08
vn 0 -0.3190936 0
vn 0 -0.3190936 0
vn 0 -0.3190936 0
vn 0 -0.3190936 0
vn -9.351236E-08 0 0.7844386
vn -9.351236E-08 0 0.7844386
vn -9.351236E-08 0 0.7844386
vn -9.351236E-08 0 0.7844386
vn 9.351236E-08 0 -0.7844386
vn 9.351236E-08 0 -0.7844386
vn 9.351236E-08 0 -0.7844386
vn 9.351236E-08 0 -0.7844386
vt 0 0
vt 1 0
vt 0 1
vt 1 1
vt 0 1
vt 1 1
vt 0 1
vt 1 1
vt 0 0
vt 1 0
vt 0 0
vt 1 0
vt 0 0
vt 0 1
vt 1 1
vt 1 0
vt 0 0
vt 0 1
vt 1 1
vt 1 0
vt 0 0
vt 0 1
vt 1 1
vt 1 0
usemtl New Material
f 4/4/4 3/3/3 1/1/1
f 2/2/2 4/4/4 1/1/1
f 6/6/6 5/5/5 9/9/9
f 10/10/10 6/6/6 9/9/9
f 8/8/8 7/7/7 11/11/11
f 12/12/12 8/8/8 11/11/11
f 15/15/15 14/14/14 13/13/13
f 16/16/16 15/15/15 13/13/13
f 19/19/19 18/18/18 17/17/17
f 20/20/20 19/19/19 17/17/17
f 23/23/23 22/22/22 21/21/21
f 24/24/24 23/23/23 21/21/21
v -180.3 2.9856 379.878
v -180.3 2.9856 381.078
v -180.3 3.4656 379.878
v -180.3 3.4656 381.078
v -179.9 3.4656 379.878
v -179.9 3.4656 381.078
v -179.9 2.9856 379.878
v -179.9 2.9856 381.078
v -180.3 3.4656 379.878
v -180.3 3.4656 381.078
v -179.9 3.4656 379.878
v -179.9 3.4656 381.078
v -179.9 2.9856 379.878
v -180.3 2.9856 379.878
v -180.3 2.9856 381.078
v -179.9 2.9856 381.078
v -180.3 2.9856 381.078
v -180.3 3.4656 381.078
v -179.9 3.4656 381.078
v -179.9 2.9856 381.078
v -179.9 2.9856 379.878
v -179.9 3.4656 379.878
v -180.3 3.4656 379.878
v -180.3 2.9856 379.878
vn -0.2956563 0 -3.524497E-08
vn -0.2956563 0 -3.524497E-08
vn -0.2956563 0 -3.524497E-08
vn -0.2956563 0 -3.524497E-08
vn 0 0.3547874 0
vn 0 0.3547874 0
vn 0.2956563 0 3.524497E-08
vn 0.2956563 0 3.524497E-08
vn 0 0.3547874 0
vn 0 0.3547874 0
vn 0.2956563 0 3.524497E-08
vn 0.2956563 0 3.524497E-08
vn 0 -0.3547874 0
vn 0 -0.3547874 0
vn 0 -0.3547874 0
vn 0 -0.3547874 0
vn -1.057349E-07 0 0.8869687
vn -1.057349E-07 0 0.8869687
vn -1.057349E-07 0 0.8869687
vn -1.057349E-07 0 0.8869687
vn 1.057349E-07 0 -0.8869687
vn 1.057349E-07 0 -0.8869687
vn 1.057349E-07 0 -0.8869687
vn 1.057349E-07 0 -0.8869687
vt 0 0
vt 1 0
vt 0 1
vt 1 1
vt 0 1
vt 1 1
vt 0 1
vt 1 1
vt 0 0
vt 1 0
vt 0 0
vt 1 0
vt 0 0
vt 0 1
vt 1 1
vt 1 0
vt 0 0
vt 0 1
vt 1 1
vt 1 0
vt 0 0
vt 0 1
vt 1 1
vt 1 0
usemtl New Material
f 28/28/28 27/27/27 25/25/25
f 26/26/26 28/28/28 25/25/25
f 30/30/30 29/29/29 33/33/33
f 34/34/34 30/30/30 33/33/33
f 32/32/32 31/31/31 35/35/35
f 36/36/36 32/32/32 35/35/35
f 39/39/39 38/38/38 37/37/37
f 40/40/40 39/39/39 37/37/37
f 43/43/43 42/42/42 41/41/41
f 44/44/44 43/43/43 41/41/41
f 47/47/47 46/46/46 45/45/45
f 48/48/48 47/47/47 45/45/45
v -180.3 1.7832 381.53
v -180.3 1.7832 382.73
v -180.3 2.2632 381.53
v -180.3 2.2632 382.73
v -179.9 2.2632 381.53
v -179.9 2.2632 382.73
v -179.9 1.7832 381.53
v -179.9 1.7832 382.73
v -180.3 2.2632 381.53
v -180.3 2.2632 382.73
v -179.9 2.2632 381.53
v -179.9 2.2632 382.73
v -179.9 1.7832 381.53
v -180.3 1.7832 381.53
v -180.3 1.7832 382.73
v -179.9 1.7832 382.73
v -180.3 1.7832 382.73
v -180.3 2.2632 382.73
v -179.9 2.2632 382.73
v -179.9 1.7832 382.73
v -179.9 1.7832 381.53
v -179.9 2.2632 381.53
v -180.3 2.2632 381.53
v -180.3 1.7832 381.53
vn -0.2956562 0 -3.524497E-08
vn -0.2956562 0 -3.524497E-08
vn -0.2956562 0 -3.524497E-08
vn -0.2956562 0 -3.524497E-08
vn 0 0.3547874 0
vn 0 0.3547874 0
vn 0.2956562 0 3.524497E-08
vn 0.2956562 0 3.524497E-08
vn 0 0.3547874 0
vn 0 0.3547874 0
vn 0.2956562 0 3.524497E-08
vn 0.2956562 0 3.524497E-08
vn 0 -0.3547874 0
vn 0 -0.3547874 0
vn 0 -0.3547874 0
vn 0 -0.3547874 0
vn -1.057349E-07 0 0.8869687
vn -1.057349E-07 0 0.8869687
vn -1.057349E-07 0 0.8869687
vn -1.057349E-07 0 0.8869687
vn 1.057349E-07 0 -0.8869687
vn 1.057349E-07 0 -0.8869687
vn 1.057349E-07 0 -0.8869687
vn 1.057349E-07 0 -0.8869687
vt 0 0
vt 1 0
vt 0 1
vt 1 1
vt 0 1
vt 1 1
vt 0 1
vt 1 1
vt 0 0
vt 1 0
vt 0 0
vt 1 0
vt 0 0
vt 0 1
vt 1 1
vt 1 0
vt 0 0
vt 0 1
vt 1 1
vt 1 0
vt 0 0
vt 0 1
vt 1 1
vt 1 0
usemtl New Material
f 52/52/52 51/51/51 49/49/49
f 50/50/50 52/52/52 49/49/49
f 54/54/54 53/53/53 57/57/57
f 58/58/58 54/54/54 57/57/57
f 56/56/56 55/55/55 59/59/59
f 60/60/60 56/56/56 59/59/59
f 63/63/63 62/62/62 61/61/61
f 64/64/64 63/63/63 61/61/61
f 67/67/67 66/66/66 65/65/65
f 68/68/68 67/67/67 65/65/65
f 71/71/71 70/70/70 69/69/69
f 72/72/72 71/71/71 69/69/69
v -180.3 0.6282876 382.8869
v -180.3 0.7332022 383.2784
v -180.3 4.066798 381.9656
v -180.3 4.171713 382.3571
v -179.9 4.066798 381.9656
v -179.9 4.171713 382.3571
v -179.9 0.6282876 382.8869
v -179.9 0.7332022 383.2784
v -180.3 4.066798 381.9656
v -180.3 4.171713 382.3571
v -179.9 4.066798 381.9656
v -179.9 4.171713 382.3571
v -179.9 0.6282876 382.8869
v -180.3 0.6282876 382.8869
v -180.3 0.7332022 383.2784
v -179.9 0.7332022 383.2784
v -180.3 0.7332022 383.2784
v -180.3 4.171713 382.3571
v -179.9 4.171713 382.3571
v -179.9 0.7332022 383.2784
v -179.9 0.6282876 382.8869
v -179.9 4.066798 381.9656
v -180.3 4.066798 381.9656
v -180.3 0.6282876 382.8869
vn -0.1109548 0 -1.426019E-08
vn -0.1109548 0 -1.426019E-08
vn -0.1109548 0 -1.426019E-08
vn -0.1109548 0 -1.426019E-08
vn 0 0.9537978 -0.2555695
vn 0 0.9537978 -0.2555695
vn 0.1109548 0 1.426019E-08
vn 0.1109548 0 1.426019E-08
vn 0 0.9537978 -0.2555695
vn 0 0.9537978 -0.2555695
vn 0.1109548 0 1.426019E-08
vn 0.1109548 0 1.426019E-08
vn 0 -0.9537978 0.2555695
vn 0 -0.9537978 0.2555695
vn 0 -0.9537978 0.2555695
vn 0 -0.9537978 0.2555695
vn -1.445124E-08 0.02910197 0.10861
vn -1.445124E-08 0.02910197 0.10861
vn -1.445124E-08 0.02910197 0.10861
vn -1.445124E-08 0.02910197 0.10861
vn 1.445124E-08 -0.02910197 -0.10861
vn 1.445124E-08 -0.02910197 -0.10861
vn 1.445124E-08 -0.02910197 -0.10861
vn 1.445124E-08 -0.02910197 -0.10861
vt 0 0
vt 1 0
vt 0 1
vt 1 1
vt 0 1
vt 1 1
vt 0 1
vt 1 1
vt 0 0
vt 1 0
vt 0 0
vt 1 0
vt 0 0
vt 0 1
vt 1 1
vt 1 0
vt 0 0
vt 0 1
vt 1 1
vt 1 0
vt 0 0
vt 0 1
vt 1 1
vt 1 0
usemtl New Material
f 76/76/76 75/75/75 73/73/73
f 74/74/74 76/76/76 73/73/73
f 78/78/78 77/77/77 81/81/81
f 82/82/82 78/78/78 81/81/81
f 80/80/80 79/79/79 83/83/83
f 84/84/84 80/80/80 83/83/83
f 87/87/87 86/86/86 85/85/85
f 88/88/88 87/87/87 85/85/85
f 91/91/91 90/90/90 89/89/89
f 92/92/92 91/91/91 89/89/89
f 95/95/95 94/94/94 93/93/93
f 96/96/96 95/95/95 93/93/93
v -180.3 3.945601 380.278
v -180.3 2.5056 380.278
v -180.3 3.9456 380.678
v -180.3 2.505599 380.678
v -179.9 3.9456 380.678
v -179.9 2.505599 380.678
v -179.9 3.945601 380.278
v -179.9 2.5056 380.278
v -180.3 3.9456 380.678
v -180.3 2.505599 380.678
v -179.9 3.9456 380.678
v -179.9 2.505599 380.678
v -179.9 3.945601 380.278
v -180.3 3.945601 380.278
v -180.3 2.5056 380.278
v -179.9 2.5056 380.278
v -180.3 2.5056 380.278
v -180.3 2.505599 380.678
v -179.9 2.505599 380.678
v -179.9 2.5056 380.278
v -179.9 3.945601 380.278
v -179.9 3.9456 380.678
v -180.3 3.9456 380.678
v -180.3 3.945601 380.278
vn -0.2585439 0 -6.164166E-08
vn -0.2585439 0 -6.164166E-08
vn -0.2585439 0 -6.164166E-08
vn -0.2585439 0 -6.164166E-08
vn 0 -6.164166E-08 0.2585439
vn 0 -6.164166E-08 0.2585439
vn 0.2585439 0 6.164166E-08
vn 0.2585439 0 6.164166E-08
vn 0 -6.164166E-08 0.2585439
vn 0 -6.164166E-08 0.2585439
vn 0.2585439 0 6.164166E-08
vn 0.2585439 0 6.164166E-08
vn 0 6.164166E-08 -0.2585439
vn 0 6.164166E-08 -0.2585439
vn 0 6.164166E-08 -0.2585439
vn 0 6.164166E-08 -0.2585439
vn -2.2191E-07 -0.9307581 0
vn -2.2191E-07 -0.9307581 0
vn -2.2191E-07 -0.9307581 0
vn -2.2191E-07 -0.9307581 0
vn 2.2191E-07 0.9307581 0
vn 2.2191E-07 0.9307581 0
vn 2.2191E-07 0.9307581 0
vn 2.2191E-07 0.9307581 0
vt 0 0
vt 1 0
vt 0 1
vt 1 1
vt 0 1
vt 1 1
vt 0 1
vt 1 1
vt 0 0
vt 1 0
vt 0 0
vt 1 0
vt 0 0
vt 0 1
vt 1 1
vt 1 0
vt 0 0
vt 0 1
vt 1 1
vt 1 0
vt 0 0
vt 0 1
vt 1 1
vt 1 0
usemtl New Material
f 100/100/100 99/99/99 97/97/97
f 98/98/98 100/100/100 97/97/97
f 102/102/102 101/101/101 105/105/105
f 106/106/106 102/102/102 105/105/105
f 104/104/104 103/103/103 107/107/107
f 108/108/108 104/104/104 107/107/107
f 111/111/111 110/110/110 109/109/109
f 112/112/112 111/111/111 109/109/109
f 115/115/115 114/114/114 113/113/113
f 116/116/116 115/115/115 113/113/113
f 119/119/119 118/118/118 117/117/117
f 120/120/120 119/119/119 117/117/117
v -180.3 0.7332022 380.9856
v -180.3 0.6282877 381.3771
v -180.3 4.171712 381.9069
v -180.3 4.066798 382.2984
v -179.9 4.171712 381.9069
v -179.9 4.066798 382.2984
v -179.9 0.7332022 380.9856
v -179.9 0.6282877 381.3771
v -180.3 4.171712 381.9069
v -180.3 4.066798 382.2984
v -179.9 4.171712 381.9069
v -179.9 4.066798 382.2984
v -179.9 0.7332022 380.9856
v -180.3 0.7332022 380.9856
v -180.3 0.6282877 381.3771
v -179.9 0.6282877 381.3771
v -180.3 0.6282877 381.3771
v -180.3 4.066798 382.2984
v -179.9 4.066798 382.2984
v -179.9 0.6282877 381.3771
v -179.9 0.7332022 380.9856
v -179.9 4.171712 381.9069
v -180.3 4.171712 381.9069
v -180.3 0.7332022 380.9856
vn -0.1109548 0 -1.178016E-08
vn -0.1109548 0 -1.178016E-08
vn -0.1109548 0 -1.178016E-08
vn -0.1109548 0 -1.178016E-08
vn 0 0.9537978 0.2555693
vn 0 0.9537978 0.2555693
vn 0.1109548 0 1.178016E-08
vn 0.1109548 0 1.178016E-08
vn 0 0.9537978 0.2555693
vn 0 0.9537978 0.2555693
vn 0.1109548 0 1.178016E-08
vn 0.1109548 0 1.178016E-08
vn 0 -0.9537978 -0.2555693
vn 0 -0.9537978 -0.2555693
vn 0 -0.9537978 -0.2555693
vn 0 -0.9537978 -0.2555693
vn -1.193798E-08 -0.02910195 0.10861
vn -1.193798E-08 -0.02910195 0.10861
vn -1.193798E-08 -0.02910195 0.10861
vn -1.193798E-08 -0.02910195 0.10861
vn 1.193798E-08 0.02910195 -0.10861
vn 1.193798E-08 0.02910195 -0.10861
vn 1.193798E-08 0.02910195 -0.10861
vn 1.193798E-08 0.02910195 -0.10861
vt 0 0
vt 1 0
vt 0 1
vt 1 1
vt 0 1
vt 1 1
vt 0 1
vt 1 1
vt 0 0
vt 1 0
vt 0 0
vt 1 0
vt 0 0
vt 0 1
vt 1 1
vt 1 0
vt 0 0
vt 0 1
vt 1 1
vt 1 0
vt 0 0
vt 0 1
vt 1 1
vt 1 0
usemtl New Material
f 124/124/124 123/123/123 121/121/121
f 122/122/122 124/124/124 121/121/121
f 126/126/126 125/125/125 129/129/129
f 130/130/130 126/126/126 129/129/129
f 128/128/128 127/127/127 131/131/131
f 132/132/132 128/128/128 131/131/131
f 135/135/135 134/134/134 133/133/133
f 136/136/136 135/135/135 133/133/133
f 139/139/139 138/138/138 137/137/137
f 140/140/140 139/139/139 137/137/137
f 143/143/143 142/142/142 141/141/141
f 144/144/144 143/143/143 141/141/141
