# Export of SampleScene
# from Aaro4130 OBJ Exporter v2.0
mtllib stage3_end_trigger.mtl
v -92.32013 -419 1176.62
v -92.32013 -419 1211.62
v -92.32013 -319 1176.62
v -92.32013 -319 1211.62
v -91.32013 -319 1176.62
v -91.32013 -319 1211.62
v -91.32013 -419 1176.62
v -91.32013 -419 1211.62
v -92.32013 -319 1176.62
v -92.32013 -319 1211.62
v -91.32013 -319 1176.62
v -91.32013 -319 1211.62
v -91.32013 -419 1176.62
v -92.32013 -419 1176.62
v -92.32013 -419 1211.62
v -91.32013 -419 1211.62
v -92.32013 -419 1211.62
v -92.32013 -319 1211.62
v -91.32013 -319 1211.62
v -91.32013 -419 1211.62
v -91.32013 -419 1176.62
v -91.32013 -319 1176.62
v -92.32013 -319 1176.62
v -92.32013 -419 1176.62
vn -0.009438166 0 -1.125117E-09
vn -0.009438166 0 -1.125117E-09
vn -0.009438166 0 -1.125117E-09
vn -0.009438166 0 -1.125117E-09
vn 0 0.9438163 0
vn 0 0.9438163 0
vn 0.009438166 0 1.125117E-09
vn 0.009438166 0 1.125117E-09
vn 0 0.9438163 0
vn 0 0.9438163 0
vn 0.009438166 0 1.125117E-09
vn 0.009438166 0 1.125117E-09
vn 0 -0.9438163 0
vn 0 -0.9438163 0
vn 0 -0.9438163 0
vn 0 -0.9438163 0
vn -3.93791E-08 0 0.3303358
vn -3.93791E-08 0 0.3303358
vn -3.93791E-08 0 0.3303358
vn -3.93791E-08 0 0.3303358
vn 3.93791E-08 0 -0.3303358
vn 3.93791E-08 0 -0.3303358
vn 3.93791E-08 0 -0.3303358
vn 3.93791E-08 0 -0.3303358
vt 0 0
vt 1 0
vt 0 1
vt 1 1
vt 0 1
vt 1 1
vt 0 1
vt 1 1
vt 0 0
vt 1 0
vt 0 0
vt 1 0
vt 0 0
vt 0 1
vt 1 1
vt 1 0
vt 0 0
vt 0 1
vt 1 1
vt 1 0
vt 0 0
vt 0 1
vt 1 1
vt 1 0
usemtl transparent
f 4/4/4 3/3/3 1/1/1
f 2/2/2 4/4/4 1/1/1
f 6/6/6 5/5/5 9/9/9
f 10/10/10 6/6/6 9/9/9
f 8/8/8 7/7/7 11/11/11
f 12/12/12 8/8/8 11/11/11
f 15/15/15 14/14/14 13/13/13
f 16/16/16 15/15/15 13/13/13
f 19/19/19 18/18/18 17/17/17
f 20/20/20 19/19/19 17/17/17
f 23/23/23 22/22/22 21/21/21
f 24/24/24 23/23/23 21/21/21
