# Export of SampleScene
# from Aaro4130 OBJ Exporter v2.0
mtllib stage3_start_wall.mtl
v -45.81 -1.809999 -5.8
v -10.81 -1.809999 -5.8
v -45.81 48.19 -5.8
v -10.81 48.19 -5.8
v -45.81 48.19 -6.8
v -10.81 48.19 -6.8
v -45.81 -1.809999 -6.8
v -10.81 -1.809999 -6.8
v -45.81 48.19 -5.8
v -10.81 48.19 -5.8
v -45.81 48.19 -6.8
v -10.81 48.19 -6.8
v -45.81 -1.809999 -6.8
v -45.81 -1.809999 -5.8
v -10.81 -1.809999 -5.8
v -10.81 -1.809999 -6.8
v -10.81 -1.809999 -5.8
v -10.81 48.19 -5.8
v -10.81 48.19 -6.8
v -10.81 -1.809999 -6.8
v -45.81 -1.809999 -6.8
v -45.81 48.19 -6.8
v -45.81 48.19 -5.8
v -45.81 -1.809999 -5.8
vn 0 0 0.01638244
vn 0 0 0.01638244
vn 0 0 0.01638244
vn 0 0 0.01638244
vn 0 0.819122 0
vn 0 0.819122 0
vn 0 0 -0.01638244
vn 0 0 -0.01638244
vn 0 0.819122 0
vn 0 0.819122 0
vn 0 0 -0.01638244
vn 0 0 -0.01638244
vn 0 -0.819122 0
vn 0 -0.819122 0
vn 0 -0.819122 0
vn 0 -0.819122 0
vn 0.5733854 0 0
vn 0.5733854 0 0
vn 0.5733854 0 0
vn 0.5733854 0 0
vn -0.5733854 0 0
vn -0.5733854 0 0
vn -0.5733854 0 0
vn -0.5733854 0 0
vt 0 0
vt 1 0
vt 0 1
vt 1 1
vt 0 1
vt 1 1
vt 0 1
vt 1 1
vt 0 0
vt 1 0
vt 0 0
vt 1 0
vt 0 0
vt 0 1
vt 1 1
vt 1 0
vt 0 0
vt 0 1
vt 1 1
vt 1 0
vt 0 0
vt 0 1
vt 1 1
vt 1 0
usemtl transparent
f 4/4/4 3/3/3 1/1/1
f 2/2/2 4/4/4 1/1/1
f 6/6/6 5/5/5 9/9/9
f 10/10/10 6/6/6 9/9/9
f 8/8/8 7/7/7 11/11/11
f 12/12/12 8/8/8 11/11/11
f 15/15/15 14/14/14 13/13/13
f 16/16/16 15/15/15 13/13/13
f 19/19/19 18/18/18 17/17/17
f 20/20/20 19/19/19 17/17/17
f 23/23/23 22/22/22 21/21/21
f 24/24/24 23/23/23 21/21/21
v 41.50001 -1.809999 -99.30016
v 41.49999 -1.809999 0.7001648
v 41.50001 48.19 -99.30016
v 41.49999 48.19 0.7001648
v 42.50001 48.19 -99.30016
v 42.49999 48.19 0.7001648
v 42.50001 -1.809999 -99.30016
v 42.49999 -1.809999 0.7001648
v 41.50001 48.19 -99.30016
v 41.49999 48.19 0.7001648
v 42.50001 48.19 -99.30016
v 42.49999 48.19 0.7001648
v 42.50001 -1.809999 -99.30016
v 41.50001 -1.809999 -99.30016
v 41.49999 -1.809999 0.7001648
v 42.49999 -1.809999 0.7001648
v 41.49999 -1.809999 0.7001648
v 41.49999 48.19 0.7001648
v 42.49999 48.19 0.7001648
v 42.49999 -1.809999 0.7001648
v 42.50001 -1.809999 -99.30016
v 42.50001 48.19 -99.30016
v 41.50001 48.19 -99.30016
v 41.50001 -1.809999 -99.30016
vn -0.008943895 0 -1.066195E-09
vn -0.008943895 0 -1.066195E-09
vn -0.008943895 0 -1.066195E-09
vn -0.008943895 0 -1.066195E-09
vn 0 0.4471946 0
vn 0 0.4471946 0
vn 0.008943895 0 1.066195E-09
vn 0.008943895 0 1.066195E-09
vn 0 0.4471946 0
vn 0 0.4471946 0
vn 0.008943895 0 1.066195E-09
vn 0.008943895 0 1.066195E-09
vn 0 -0.4471946 0
vn 0 -0.4471946 0
vn 0 -0.4471946 0
vn 0 -0.4471946 0
vn -1.066198E-07 0 0.8943921
vn -1.066198E-07 0 0.8943921
vn -1.066198E-07 0 0.8943921
vn -1.066198E-07 0 0.8943921
vn 1.066198E-07 0 -0.8943921
vn 1.066198E-07 0 -0.8943921
vn 1.066198E-07 0 -0.8943921
vn 1.066198E-07 0 -0.8943921
vt 0 0
vt 1 0
vt 0 1
vt 1 1
vt 0 1
vt 1 1
vt 0 1
vt 1 1
vt 0 0
vt 1 0
vt 0 0
vt 1 0
vt 0 0
vt 0 1
vt 1 1
vt 1 0
vt 0 0
vt 0 1
vt 1 1
vt 1 0
vt 0 0
vt 0 1
vt 1 1
vt 1 0
usemtl transparent
f 28/28/28 27/27/27 25/25/25
f 26/26/26 28/28/28 25/25/25
f 30/30/30 29/29/29 33/33/33
f 34/34/34 30/30/30 33/33/33
f 32/32/32 31/31/31 35/35/35
f 36/36/36 32/32/32 35/35/35
f 39/39/39 38/38/38 37/37/37
f 40/40/40 39/39/39 37/37/37
f 43/43/43 42/42/42 41/41/41
f 44/44/44 43/43/43 41/41/41
f 47/47/47 46/46/46 45/45/45
f 48/48/48 47/47/47 45/45/45
v 10.7 -1.809999 -5.8
v 45.7 -1.809999 -5.8
v 10.7 48.19 -5.8
v 45.7 48.19 -5.8
v 10.7 48.19 -6.8
v 45.7 48.19 -6.8
v 10.7 -1.809999 -6.8
v 45.7 -1.809999 -6.8
v 10.7 48.19 -5.8
v 45.7 48.19 -5.8
v 10.7 48.19 -6.8
v 45.7 48.19 -6.8
v 10.7 -1.809999 -6.8
v 10.7 -1.809999 -5.8
v 45.7 -1.809999 -5.8
v 45.7 -1.809999 -6.8
v 45.7 -1.809999 -5.8
v 45.7 48.19 -5.8
v 45.7 48.19 -6.8
v 45.7 -1.809999 -6.8
v 10.7 -1.809999 -6.8
v 10.7 48.19 -6.8
v 10.7 48.19 -5.8
v 10.7 -1.809999 -5.8
vn 0 0 0.01638244
vn 0 0 0.01638244
vn 0 0 0.01638244
vn 0 0 0.01638244
vn 0 0.819122 0
vn 0 0.819122 0
vn 0 0 -0.01638244
vn 0 0 -0.01638244
vn 0 0.819122 0
vn 0 0.819122 0
vn 0 0 -0.01638244
vn 0 0 -0.01638244
vn 0 -0.819122 0
vn 0 -0.819122 0
vn 0 -0.819122 0
vn 0 -0.819122 0
vn 0.5733854 0 0
vn 0.5733854 0 0
vn 0.5733854 0 0
vn 0.5733854 0 0
vn -0.5733854 0 0
vn -0.5733854 0 0
vn -0.5733854 0 0
vn -0.5733854 0 0
vt 0 0
vt 1 0
vt 0 1
vt 1 1
vt 0 1
vt 1 1
vt 0 1
vt 1 1
vt 0 0
vt 1 0
vt 0 0
vt 1 0
vt 0 0
vt 0 1
vt 1 1
vt 1 0
vt 0 0
vt 0 1
vt 1 1
vt 1 0
vt 0 0
vt 0 1
vt 1 1
vt 1 0
usemtl transparent
f 52/52/52 51/51/51 49/49/49
f 50/50/50 52/52/52 49/49/49
f 54/54/54 53/53/53 57/57/57
f 58/58/58 54/54/54 57/57/57
f 56/56/56 55/55/55 59/59/59
f 60/60/60 56/56/56 59/59/59
f 63/63/63 62/62/62 61/61/61
f 64/64/64 63/63/63 61/61/61
f 67/67/67 66/66/66 65/65/65
f 68/68/68 67/67/67 65/65/65
f 71/71/71 70/70/70 69/69/69
f 72/72/72 71/71/71 69/69/69
v -42.49999 -1.809999 -99.30016
v -42.50001 -1.809999 0.7001648
v -42.49999 48.19 -99.30016
v -42.50001 48.19 0.7001648
v -41.49999 48.19 -99.30016
v -41.50001 48.19 0.7001648
v -41.49999 -1.809999 -99.30016
v -41.50001 -1.809999 0.7001648
v -42.49999 48.19 -99.30016
v -42.50001 48.19 0.7001648
v -41.49999 48.19 -99.30016
v -41.50001 48.19 0.7001648
v -41.49999 -1.809999 -99.30016
v -42.49999 -1.809999 -99.30016
v -42.50001 -1.809999 0.7001648
v -41.50001 -1.809999 0.7001648
v -42.50001 -1.809999 0.7001648
v -42.50001 48.19 0.7001648
v -41.50001 48.19 0.7001648
v -41.50001 -1.809999 0.7001648
v -41.49999 -1.809999 -99.30016
v -41.49999 48.19 -99.30016
v -42.49999 48.19 -99.30016
v -42.49999 -1.809999 -99.30016
vn -0.008943895 0 -1.066195E-09
vn -0.008943895 0 -1.066195E-09
vn -0.008943895 0 -1.066195E-09
vn -0.008943895 0 -1.066195E-09
vn 0 0.4471946 0
vn 0 0.4471946 0
vn 0.008943895 0 1.066195E-09
vn 0.008943895 0 1.066195E-09
vn 0 0.4471946 0
vn 0 0.4471946 0
vn 0.008943895 0 1.066195E-09
vn 0.008943895 0 1.066195E-09
vn 0 -0.4471946 0
vn 0 -0.4471946 0
vn 0 -0.4471946 0
vn 0 -0.4471946 0
vn -1.066198E-07 0 0.8943921
vn -1.066198E-07 0 0.8943921
vn -1.066198E-07 0 0.8943921
vn -1.066198E-07 0 0.8943921
vn 1.066198E-07 0 -0.8943921
vn 1.066198E-07 0 -0.8943921
vn 1.066198E-07 0 -0.8943921
vn 1.066198E-07 0 -0.8943921
vt 0 0
vt 1 0
vt 0 1
vt 1 1
vt 0 1
vt 1 1
vt 0 1
vt 1 1
vt 0 0
vt 1 0
vt 0 0
vt 1 0
vt 0 0
vt 0 1
vt 1 1
vt 1 0
vt 0 0
vt 0 1
vt 1 1
vt 1 0
vt 0 0
vt 0 1
vt 1 1
vt 1 0
usemtl transparent
f 76/76/76 75/75/75 73/73/73
f 74/74/74 76/76/76 73/73/73
f 78/78/78 77/77/77 81/81/81
f 82/82/82 78/78/78 81/81/81
f 80/80/80 79/79/79 83/83/83
f 84/84/84 80/80/80 83/83/83
f 87/87/87 86/86/86 85/85/85
f 88/88/88 87/87/87 85/85/85
f 91/91/91 90/90/90 89/89/89
f 92/92/92 91/91/91 89/89/89
f 95/95/95 94/94/94 93/93/93
f 96/96/96 95/95/95 93/93/93
v -11.5 -1.809999 -6.300002
v -11.5 -1.809999 3.700001
v -11.5 48.19 -6.300002
v -11.5 48.19 3.700001
v -10.5 48.19 -6.300002
v -10.5 48.19 3.700001
v -10.5 -1.809999 -6.300002
v -10.5 -1.809999 3.700001
v -11.5 48.19 -6.300002
v -11.5 48.19 3.700001
v -10.5 48.19 -6.300002
v -10.5 48.19 3.700001
v -10.5 -1.809999 -6.300002
v -11.5 -1.809999 -6.300002
v -11.5 -1.809999 3.700001
v -10.5 -1.809999 3.700001
v -11.5 -1.809999 3.700001
v -11.5 48.19 3.700001
v -10.5 48.19 3.700001
v -10.5 -1.809999 3.700001
v -10.5 -1.809999 -6.300002
v -10.5 48.19 -6.300002
v -11.5 48.19 -6.300002
v -11.5 -1.809999 -6.300002
vn -0.01960785 0 -2.337438E-09
vn -0.01960785 0 -2.337438E-09
vn -0.01960785 0 -2.337438E-09
vn -0.01960785 0 -2.337438E-09
vn 0 0.9803922 0
vn 0 0.9803922 0
vn 0.01960785 0 2.337438E-09
vn 0.01960785 0 2.337438E-09
vn 0 0.9803922 0
vn 0 0.9803922 0
vn 0.01960785 0 2.337438E-09
vn 0.01960785 0 2.337438E-09
vn 0 -0.9803922 0
vn 0 -0.9803922 0
vn 0 -0.9803922 0
vn 0 -0.9803922 0
vn -2.337437E-08 0 0.1960785
vn -2.337437E-08 0 0.1960785
vn -2.337437E-08 0 0.1960785
vn -2.337437E-08 0 0.1960785
vn 2.337437E-08 0 -0.1960785
vn 2.337437E-08 0 -0.1960785
vn 2.337437E-08 0 -0.1960785
vn 2.337437E-08 0 -0.1960785
vt 0 0
vt 1 0
vt 0 1
vt 1 1
vt 0 1
vt 1 1
vt 0 1
vt 1 1
vt 0 0
vt 1 0
vt 0 0
vt 1 0
vt 0 0
vt 0 1
vt 1 1
vt 1 0
vt 0 0
vt 0 1
vt 1 1
vt 1 0
vt 0 0
vt 0 1
vt 1 1
vt 1 0
usemtl transparent
f 100/100/100 99/99/99 97/97/97
f 98/98/98 100/100/100 97/97/97
f 102/102/102 101/101/101 105/105/105
f 106/106/106 102/102/102 105/105/105
f 104/104/104 103/103/103 107/107/107
f 108/108/108 104/104/104 107/107/107
f 111/111/111 110/110/110 109/109/109
f 112/112/112 111/111/111 109/109/109
f 115/115/115 114/114/114 113/113/113
f 116/116/116 115/115/115 113/113/113
f 119/119/119 118/118/118 117/117/117
f 120/120/120 119/119/119 117/117/117
v -50 -1.809999 -89.8
v 50 -1.809999 -89.8
v -50 48.19 -89.8
v 50 48.19 -89.8
v -50 48.19 -90.8
v 50 48.19 -90.8
v -50 -1.809999 -90.8
v 50 -1.809999 -90.8
v -50 48.19 -89.8
v 50 48.19 -89.8
v -50 48.19 -90.8
v 50 48.19 -90.8
v -50 -1.809999 -90.8
v -50 -1.809999 -89.8
v 50 -1.809999 -89.8
v 50 -1.809999 -90.8
v 50 -1.809999 -89.8
v 50 48.19 -89.8
v 50 48.19 -90.8
v 50 -1.809999 -90.8
v -50 -1.809999 -90.8
v -50 48.19 -90.8
v -50 48.19 -89.8
v -50 -1.809999 -89.8
vn 0 0 0.008943914
vn 0 0 0.008943914
vn 0 0 0.008943914
vn 0 0 0.008943914
vn 0 0.4471957 0
vn 0 0.4471957 0
vn 0 0 -0.008943914
vn 0 0 -0.008943914
vn 0 0.4471957 0
vn 0 0.4471957 0
vn 0 0 -0.008943914
vn 0 0 -0.008943914
vn 0 -0.4471957 0
vn 0 -0.4471957 0
vn 0 -0.4471957 0
vn 0 -0.4471957 0
vn 0.8943914 0 0
vn 0.8943914 0 0
vn 0.8943914 0 0
vn 0.8943914 0 0
vn -0.8943914 0 0
vn -0.8943914 0 0
vn -0.8943914 0 0
vn -0.8943914 0 0
vt 0 0
vt 1 0
vt 0 1
vt 1 1
vt 0 1
vt 1 1
vt 0 1
vt 1 1
vt 0 0
vt 1 0
vt 0 0
vt 1 0
vt 0 0
vt 0 1
vt 1 1
vt 1 0
vt 0 0
vt 0 1
vt 1 1
vt 1 0
vt 0 0
vt 0 1
vt 1 1
vt 1 0
usemtl transparent
f 124/124/124 123/123/123 121/121/121
f 122/122/122 124/124/124 121/121/121
f 126/126/126 125/125/125 129/129/129
f 130/130/130 126/126/126 129/129/129
f 128/128/128 127/127/127 131/131/131
f 132/132/132 128/128/128 131/131/131
f 135/135/135 134/134/134 133/133/133
f 136/136/136 135/135/135 133/133/133
f 139/139/139 138/138/138 137/137/137
f 140/140/140 139/139/139 137/137/137
f 143/143/143 142/142/142 141/141/141
f 144/144/144 143/143/143 141/141/141
v 10.5 -1.809999 -6.300002
v 10.5 -1.809999 3.700001
v 10.5 48.19 -6.300002
v 10.5 48.19 3.700001
v 11.5 48.19 -6.300002
v 11.5 48.19 3.700001
v 11.5 -1.809999 -6.300002
v 11.5 -1.809999 3.700001
v 10.5 48.19 -6.300002
v 10.5 48.19 3.700001
v 11.5 48.19 -6.300002
v 11.5 48.19 3.700001
v 11.5 -1.809999 -6.300002
v 10.5 -1.809999 -6.300002
v 10.5 -1.809999 3.700001
v 11.5 -1.809999 3.700001
v 10.5 -1.809999 3.700001
v 10.5 48.19 3.700001
v 11.5 48.19 3.700001
v 11.5 -1.809999 3.700001
v 11.5 -1.809999 -6.300002
v 11.5 48.19 -6.300002
v 10.5 48.19 -6.300002
v 10.5 -1.809999 -6.300002
vn -0.01960785 0 -2.337438E-09
vn -0.01960785 0 -2.337438E-09
vn -0.01960785 0 -2.337438E-09
vn -0.01960785 0 -2.337438E-09
vn 0 0.9803922 0
vn 0 0.9803922 0
vn 0.01960785 0 2.337438E-09
vn 0.01960785 0 2.337438E-09
vn 0 0.9803922 0
vn 0 0.9803922 0
vn 0.01960785 0 2.337438E-09
vn 0.01960785 0 2.337438E-09
vn 0 -0.9803922 0
vn 0 -0.9803922 0
vn 0 -0.9803922 0
vn 0 -0.9803922 0
vn -2.337437E-08 0 0.1960785
vn -2.337437E-08 0 0.1960785
vn -2.337437E-08 0 0.1960785
vn -2.337437E-08 0 0.1960785
vn 2.337437E-08 0 -0.1960785
vn 2.337437E-08 0 -0.1960785
vn 2.337437E-08 0 -0.1960785
vn 2.337437E-08 0 -0.1960785
vt 0 0
vt 1 0
vt 0 1
vt 1 1
vt 0 1
vt 1 1
vt 0 1
vt 1 1
vt 0 0
vt 1 0
vt 0 0
vt 1 0
vt 0 0
vt 0 1
vt 1 1
vt 1 0
vt 0 0
vt 0 1
vt 1 1
vt 1 0
vt 0 0
vt 0 1
vt 1 1
vt 1 0
usemtl transparent
f 148/148/148 147/147/147 145/145/145
f 146/146/146 148/148/148 145/145/145
f 150/150/150 149/149/149 153/153/153
f 154/154/154 150/150/150 153/153/153
f 152/152/152 151/151/151 155/155/155
f 156/156/156 152/152/152 155/155/155
f 159/159/159 158/158/158 157/157/157
f 160/160/160 159/159/159 157/157/157
f 163/163/163 162/162/162 161/161/161
f 164/164/164 163/163/163 161/161/161
f 167/167/167 166/166/166 165/165/165
f 168/168/168 167/167/167 165/165/165
