# Export of SampleScene
# from Aaro4130 OBJ Exporter v2.0
mtllib background.mtl
v 49.5 -825.376 4570.197
v 50.5 -825.376 4570.197
v 49.5 -776.1356 4578.88
v 50.5 -776.1356 4578.88
v 49.5 57.37601 -148.1973
v 50.5 57.37601 -148.1973
v 49.5 8.13562 -156.8799
v 50.5 8.13562 -156.8799
v 49.5 -776.1356 4578.88
v 50.5 -776.1356 4578.88
v 49.5 57.37601 -148.1973
v 50.5 57.37601 -148.1973
v 49.5 8.13562 -156.8799
v 49.5 -825.376 4570.197
v 50.5 -825.376 4570.197
v 50.5 8.13562 -156.8799
v 50.5 -825.376 4570.197
v 50.5 -776.1356 4578.88
v 50.5 57.37601 -148.1973
v 50.5 8.13562 -156.8799
v 49.5 8.13562 -156.8799
v 49.5 57.37601 -148.1973
v 49.5 -776.1356 4578.88
v 49.5 -825.376 4570.197
vn 0 -0.1736388 0.9847543
vn 0 -0.1736388 0.9847543
vn 0 -0.1736388 0.9847543
vn 0 -0.1736388 0.9847543
vn 0 0.01025786 0.001808738
vn 0 0.01025786 0.001808738
vn 0 0.1736388 -0.9847543
vn 0 0.1736388 -0.9847543
vn 0 0.01025786 0.001808738
vn 0 0.01025786 0.001808738
vn 0 0.1736388 -0.9847543
vn 0 0.1736388 -0.9847543
vn 0 -0.01025786 -0.001808738
vn 0 -0.01025786 -0.001808738
vn 0 -0.01025786 -0.001808738
vn 0 -0.01025786 -0.001808738
vn 0.000208322 0 0
vn 0.000208322 0 0
vn 0.000208322 0 0
vn 0.000208322 0 0
vn -0.000208322 0 0
vn -0.000208322 0 0
vn -0.000208322 0 0
vn -0.000208322 0 0
vt 0 0
vt 1 0
vt 0 1
vt 1 1
vt 0 1
vt 1 1
vt 0 1
vt 1 1
vt 0 0
vt 1 0
vt 0 0
vt 1 0
vt 0 0
vt 0 1
vt 1 1
vt 1 0
vt 0 0
vt 0 1
vt 1 1
vt 1 0
vt 0 0
vt 0 1
vt 1 1
vt 1 0
usemtl mainVis1
f 4/4/4 3/3/3 1/1/1
f 2/2/2 4/4/4 1/1/1
f 6/6/6 5/5/5 9/9/9
f 10/10/10 6/6/6 9/9/9
f 8/8/8 7/7/7 11/11/11
f 12/12/12 8/8/8 11/11/11
f 15/15/15 14/14/14 13/13/13
f 16/16/16 15/15/15 13/13/13
f 19/19/19 18/18/18 17/17/17
f 20/20/20 19/19/19 17/17/17
f 23/23/23 22/22/22 21/21/21
f 24/24/24 23/23/23 21/21/21
v -50.5 -825.376 4570.197
v -49.5 -825.376 4570.197
v -50.5 -776.1356 4578.88
v -49.5 -776.1356 4578.88
v -50.5 57.37601 -148.1973
v -49.5 57.37601 -148.1973
v -50.5 8.13562 -156.8799
v -49.5 8.13562 -156.8799
v -50.5 -776.1356 4578.88
v -49.5 -776.1356 4578.88
v -50.5 57.37601 -148.1973
v -49.5 57.37601 -148.1973
v -50.5 8.13562 -156.8799
v -50.5 -825.376 4570.197
v -49.5 -825.376 4570.197
v -49.5 8.13562 -156.8799
v -49.5 -825.376 4570.197
v -49.5 -776.1356 4578.88
v -49.5 57.37601 -148.1973
v -49.5 8.13562 -156.8799
v -50.5 8.13562 -156.8799
v -50.5 57.37601 -148.1973
v -50.5 -776.1356 4578.88
v -50.5 -825.376 4570.197
vn 0 -0.1736388 0.9847543
vn 0 -0.1736388 0.9847543
vn 0 -0.1736388 0.9847543
vn 0 -0.1736388 0.9847543
vn 0 0.01025786 0.001808738
vn 0 0.01025786 0.001808738
vn 0 0.1736388 -0.9847543
vn 0 0.1736388 -0.9847543
vn 0 0.01025786 0.001808738
vn 0 0.01025786 0.001808738
vn 0 0.1736388 -0.9847543
vn 0 0.1736388 -0.9847543
vn 0 -0.01025786 -0.001808738
vn 0 -0.01025786 -0.001808738
vn 0 -0.01025786 -0.001808738
vn 0 -0.01025786 -0.001808738
vn 0.000208322 0 0
vn 0.000208322 0 0
vn 0.000208322 0 0
vn 0.000208322 0 0
vn -0.000208322 0 0
vn -0.000208322 0 0
vn -0.000208322 0 0
vn -0.000208322 0 0
vt 0 0
vt 1 0
vt 0 1
vt 1 1
vt 0 1
vt 1 1
vt 0 1
vt 1 1
vt 0 0
vt 1 0
vt 0 0
vt 1 0
vt 0 0
vt 0 1
vt 1 1
vt 1 0
vt 0 0
vt 0 1
vt 1 1
vt 1 0
vt 0 0
vt 0 1
vt 1 1
vt 1 0
usemtl mainVis2
f 28/28/28 27/27/27 25/25/25
f 26/26/26 28/28/28 25/25/25
f 30/30/30 29/29/29 33/33/33
f 34/34/34 30/30/30 33/33/33
f 32/32/32 31/31/31 35/35/35
f 36/36/36 32/32/32 35/35/35
f 39/39/39 38/38/38 37/37/37
f 40/40/40 39/39/39 37/37/37
f 43/43/43 42/42/42 41/41/41
f 44/44/44 43/43/43 41/41/41
f 47/47/47 46/46/46 45/45/45
f 48/48/48 47/47/47 45/45/45
v -50 -824.2634 4569.625
v -50 -825.2482 4569.452
v 50 -824.2634 4569.625
v 50 -825.2483 4569.452
v 50 9.24823 -157.4517
v 50 8.263428 -157.6255
v -50 9.24826 -157.4517
v -50 8.263428 -157.6255
v 50 -824.2634 4569.625
v 50 -825.2483 4569.452
v 50 9.24823 -157.4517
v 50 8.263428 -157.6255
v -50 9.24826 -157.4517
v -50 -824.2634 4569.625
v -50 -825.2482 4569.452
v -50 8.263428 -157.6255
v -50 -825.2482 4569.452
v 50 -825.2483 4569.452
v 50 8.263428 -157.6255
v -50 8.263428 -157.6255
v -50 9.24826 -157.4517
v 50 9.24823 -157.4517
v 50 -824.2634 4569.625
v -50 -824.2634 4569.625
vn 0 -0.1736106 0.984594
vn 0 -0.1736106 0.984594
vn 0 -0.1736106 0.984594
vn 0 -0.1736106 0.984594
vn 0.02082882 -1.163901E-09 0
vn 0.02082882 -1.163901E-09 0
vn 0 0.1736106 -0.984594
vn 0 0.1736106 -0.984594
vn 0.02082882 -1.163901E-09 0
vn 0.02082882 -1.163901E-09 0
vn 0 0.1736106 -0.984594
vn 0 0.1736106 -0.984594
vn -0.02082882 1.163901E-09 0
vn -0.02082882 1.163901E-09 0
vn -0.02082882 1.163901E-09 0
vn -0.02082882 1.163901E-09 0
vn -1.163901E-11 -0.0002051238 -3.616888E-05
vn -1.163901E-11 -0.0002051238 -3.616888E-05
vn -1.163901E-11 -0.0002051238 -3.616888E-05
vn -1.163901E-11 -0.0002051238 -3.616888E-05
vn 1.163901E-11 0.0002051238 3.616888E-05
vn 1.163901E-11 0.0002051238 3.616888E-05
vn 1.163901E-11 0.0002051238 3.616888E-05
vn 1.163901E-11 0.0002051238 3.616888E-05
vt 0 0
vt 1 0
vt 0 1
vt 1 1
vt 0 1
vt 1 1
vt 0 1
vt 1 1
vt 0 0
vt 1 0
vt 0 0
vt 1 0
vt 0 0
vt 0 1
vt 1 1
vt 1 0
vt 0 0
vt 0 1
vt 1 1
vt 1 0
vt 0 0
vt 0 1
vt 1 1
vt 1 0
usemtl ground 2
f 52/52/52 51/51/51 49/49/49
f 50/50/50 52/52/52 49/49/49
f 54/54/54 53/53/53 57/57/57
f 58/58/58 54/54/54 57/57/57
f 56/56/56 55/55/55 59/59/59
f 60/60/60 56/56/56 59/59/59
f 63/63/63 62/62/62 61/61/61
f 64/64/64 63/63/63 61/61/61
f 67/67/67 66/66/66 65/65/65
f 68/68/68 67/67/67 65/65/65
f 71/71/71 70/70/70 69/69/69
f 72/72/72 71/71/71 69/69/69
