# Export of SampleScene
# from Aaro4130 OBJ Exporter v2.0
mtllib stage1_track.mtl
v 10 -779.6807 4421.787
v 11 -779.6807 4421.787
v 10 -773.7718 4422.829
v 11 -773.7718 4422.829
v 10 7.645355 -8.806152
v 11 7.645355 -8.806152
v 10 1.736511 -9.848145
v 11 1.736511 -9.848145
v 10 -773.7718 4422.829
v 11 -773.7718 4422.829
v 10 7.645355 -8.806152
v 11 7.645355 -8.806152
v 10 1.736511 -9.848145
v 10 -779.6807 4421.787
v 11 -779.6807 4421.787
v 11 1.736511 -9.848145
v 11 -779.6807 4421.787
v 11 -773.7718 4422.829
v 11 7.645355 -8.806152
v 11 1.736511 -9.848145
v 10 1.736511 -9.848145
v 10 7.645355 -8.806152
v 10 -773.7718 4422.829
v 10 -779.6807 4421.787
vn 0 -0.1736481 0.9848068
vn 0 -0.1736481 0.9848068
vn 0 -0.1736481 0.9848068
vn 0 -0.1736481 0.9848068
vn 0 0.001313076 0.0002315308
vn 0 0.001313076 0.0002315308
vn 0 0.1736481 -0.9848068
vn 0 0.1736481 -0.9848068
vn 0 0.001313076 0.0002315308
vn 0 0.001313076 0.0002315308
vn 0 0.1736481 -0.9848068
vn 0 0.1736481 -0.9848068
vn 0 -0.001313076 -0.0002315308
vn 0 -0.001313076 -0.0002315308
vn 0 -0.001313076 -0.0002315308
vn 0 -0.001313076 -0.0002315308
vn 0.000222222 0 0
vn 0.000222222 0 0
vn 0.000222222 0 0
vn 0.000222222 0 0
vn -0.000222222 0 0
vn -0.000222222 0 0
vn -0.000222222 0 0
vn -0.000222222 0 0
vt 0 0
vt 1 0
vt 0 1
vt 1 1
vt 0 1
vt 1 1
vt 0 1
vt 1 1
vt 0 0
vt 1 0
vt 0 0
vt 1 0
vt 0 0
vt 0 1
vt 1 1
vt 1 0
vt 0 0
vt 0 1
vt 1 1
vt 1 0
vt 0 0
vt 0 1
vt 1 1
vt 1 0
usemtl Guardrails01_tiled_1x40
f 4/4/4 3/3/3 1/1/1
f 2/2/2 4/4/4 1/1/1
f 6/6/6 5/5/5 9/9/9
f 10/10/10 6/6/6 9/9/9
f 8/8/8 7/7/7 11/11/11
f 12/12/12 8/8/8 11/11/11
f 15/15/15 14/14/14 13/13/13
f 16/16/16 15/15/15 13/13/13
f 19/19/19 18/18/18 17/17/17
f 20/20/20 19/19/19 17/17/17
f 23/23/23 22/22/22 21/21/21
f 24/24/24 23/23/23 21/21/21
v -11 -779.6807 4421.787
v -10 -779.6807 4421.787
v -11 -773.7718 4422.829
v -10 -773.7718 4422.829
v -11 7.645355 -8.806152
v -10 7.645355 -8.806152
v -11 1.736511 -9.848145
v -10 1.736511 -9.848145
v -11 -773.7718 4422.829
v -10 -773.7718 4422.829
v -11 7.645355 -8.806152
v -10 7.645355 -8.806152
v -11 1.736511 -9.848145
v -11 -779.6807 4421.787
v -10 -779.6807 4421.787
v -10 1.736511 -9.848145
v -10 -779.6807 4421.787
v -10 -773.7718 4422.829
v -10 7.645355 -8.806152
v -10 1.736511 -9.848145
v -11 1.736511 -9.848145
v -11 7.645355 -8.806152
v -11 -773.7718 4422.829
v -11 -779.6807 4421.787
vn 0 -0.1736481 0.9848068
vn 0 -0.1736481 0.9848068
vn 0 -0.1736481 0.9848068
vn 0 -0.1736481 0.9848068
vn 0 0.001313076 0.0002315308
vn 0 0.001313076 0.0002315308
vn 0 0.1736481 -0.9848068
vn 0 0.1736481 -0.9848068
vn 0 0.001313076 0.0002315308
vn 0 0.001313076 0.0002315308
vn 0 0.1736481 -0.9848068
vn 0 0.1736481 -0.9848068
vn 0 -0.001313076 -0.0002315308
vn 0 -0.001313076 -0.0002315308
vn 0 -0.001313076 -0.0002315308
vn 0 -0.001313076 -0.0002315308
vn 0.000222222 0 0
vn 0.000222222 0 0
vn 0.000222222 0 0
vn 0.000222222 0 0
vn -0.000222222 0 0
vn -0.000222222 0 0
vn -0.000222222 0 0
vn -0.000222222 0 0
vt 0 0
vt 1 0
vt 0 1
vt 1 1
vt 0 1
vt 1 1
vt 0 1
vt 1 1
vt 0 0
vt 1 0
vt 0 0
vt 1 0
vt 0 0
vt 0 1
vt 1 1
vt 1 0
vt 0 0
vt 0 1
vt 1 1
vt 1 0
vt 0 0
vt 0 1
vt 1 1
vt 1 0
usemtl Guardrails01_tiled_1x40
f 28/28/28 27/27/27 25/25/25
f 26/26/26 28/28/28 25/25/25
f 30/30/30 29/29/29 33/33/33
f 34/34/34 30/30/30 33/33/33
f 32/32/32 31/31/31 35/35/35
f 36/36/36 32/32/32 35/35/35
f 39/39/39 38/38/38 37/37/37
f 40/40/40 39/39/39 37/37/37
f 43/43/43 42/42/42 41/41/41
f 44/44/44 43/43/43 41/41/41
f 47/47/47 46/46/46 45/45/45
f 48/48/48 47/47/47 45/45/45
v -10.5 -780.173 4421.7
v 10.5 -780.173 4421.7
v -10.5 -779.1882 4421.874
v 10.5 -779.1882 4421.874
v -10.5 2.228882 -9.76123
v 10.5 2.228882 -9.76123
v -10.5 1.24408 -9.935059
v 10.5 1.24408 -9.935059
v -10.5 -779.1882 4421.874
v 10.5 -779.1882 4421.874
v -10.5 2.228882 -9.76123
v 10.5 2.228882 -9.76123
v -10.5 1.24408 -9.935059
v -10.5 -780.173 4421.7
v 10.5 -780.173 4421.7
v 10.5 1.24408 -9.935059
v 10.5 -780.173 4421.7
v 10.5 -779.1882 4421.874
v 10.5 2.228882 -9.76123
v 10.5 1.24408 -9.935059
v -10.5 1.24408 -9.935059
v -10.5 2.228882 -9.76123
v -10.5 -779.1882 4421.874
v -10.5 -780.173 4421.7
vn 0 -0.1736463 0.9847969
vn 0 -0.1736463 0.9847969
vn 0 -0.1736463 0.9847969
vn 0 -0.1736463 0.9847969
vn 0 0.0002188438 3.858808E-05
vn 0 0.0002188438 3.858808E-05
vn 0 0.1736463 -0.9847969
vn 0 0.1736463 -0.9847969
vn 0 0.0002188438 3.858808E-05
vn 0 0.0002188438 3.858808E-05
vn 0 0.1736463 -0.9847969
vn 0 0.1736463 -0.9847969
vn 0 -0.0002188438 -3.858808E-05
vn 0 -0.0002188438 -3.858808E-05
vn 0 -0.0002188438 -3.858808E-05
vn 0 -0.0002188438 -3.858808E-05
vn 0.004666616 0 0
vn 0.004666616 0 0
vn 0.004666616 0 0
vn 0.004666616 0 0
vn -0.004666616 0 0
vn -0.004666616 0 0
vn -0.004666616 0 0
vn -0.004666616 0 0
vt 0 0
vt 1 0
vt 0 1
vt 1 1
vt 0 1
vt 1 1
vt 0 1
vt 1 1
vt 0 0
vt 1 0
vt 0 0
vt 1 0
vt 0 0
vt 0 1
vt 1 1
vt 1 0
vt 0 0
vt 0 1
vt 1 1
vt 1 0
vt 0 0
vt 0 1
vt 1 1
vt 1 0
usemtl Road_2lane_dark02_tiled_20x1
f 52/52/52 51/51/51 49/49/49
f 50/50/50 52/52/52 49/49/49
f 54/54/54 53/53/53 57/57/57
f 58/58/58 54/54/54 57/57/57
f 56/56/56 55/55/55 59/59/59
f 60/60/60 56/56/56 59/59/59
f 63/63/63 62/62/62 61/61/61
f 64/64/64 63/63/63 61/61/61
f 67/67/67 66/66/66 65/65/65
f 68/68/68 67/67/67 65/65/65
f 71/71/71 70/70/70 69/69/69
f 72/72/72 71/71/71 69/69/69
