# Export of SampleScene
# from Aaro4130 OBJ Exporter v2.0
mtllib background4.mtl
v -324.0001 -60.09996 617
v -324.0001 -61.09996 617
v 276.0001 -60.10003 617
v 276.0001 -61.10003 617
v 276.0001 -60.10003 -183
v 276.0001 -61.10003 -183
v -324.0001 -60.09996 -183
v -324.0001 -61.09996 -183
v 276.0001 -60.10003 617
v 276.0001 -61.10003 617
v 276.0001 -60.10003 -183
v 276.0001 -61.10003 -183
v -324.0001 -60.09996 -183
v -324.0001 -60.09996 617
v -324.0001 -61.09996 617
v -324.0001 -61.09996 -183
v -324.0001 -61.09996 617
v 276.0001 -61.10003 617
v 276.0001 -61.10003 -183
v -324.0001 -61.09996 -183
v -324.0001 -60.09996 -183
v 276.0001 -60.10003 -183
v 276.0001 -60.10003 617
v -324.0001 -60.09996 617
vn 0 0 0.7999995
vn 0 0 0.7999995
vn 0 0 0.7999995
vn 0 0 0.7999995
vn 0.5999998 -7.152555E-08 0
vn 0.5999998 -7.152555E-08 0
vn 0 0 -0.7999995
vn 0 0 -0.7999995
vn 0.5999998 -7.152555E-08 0
vn 0.5999998 -7.152555E-08 0
vn 0 0 -0.7999995
vn 0 0 -0.7999995
vn -0.5999998 7.152555E-08 0
vn -0.5999998 7.152555E-08 0
vn -0.5999998 7.152555E-08 0
vn -0.5999998 7.152555E-08 0
vn -1.192093E-10 -0.0009999998 0
vn -1.192093E-10 -0.0009999998 0
vn -1.192093E-10 -0.0009999998 0
vn -1.192093E-10 -0.0009999998 0
vn 1.192093E-10 0.0009999998 0
vn 1.192093E-10 0.0009999998 0
vn 1.192093E-10 0.0009999998 0
vn 1.192093E-10 0.0009999998 0
vt 0 0
vt 1 0
vt 0 1
vt 1 1
vt 0 1
vt 1 1
vt 0 1
vt 1 1
vt 0 0
vt 1 0
vt 0 0
vt 1 0
vt 0 0
vt 0 1
vt 1 1
vt 1 0
vt 0 0
vt 0 1
vt 1 1
vt 1 0
vt 0 0
vt 0 1
vt 1 1
vt 1 0
usemtl ground 2
f 4/4/4 3/3/3 1/1/1
f 2/2/2 4/4/4 1/1/1
f 6/6/6 5/5/5 9/9/9
f 10/10/10 6/6/6 9/9/9
f 8/8/8 7/7/7 11/11/11
f 12/12/12 8/8/8 11/11/11
f 15/15/15 14/14/14 13/13/13
f 16/16/16 15/15/15 13/13/13
f 19/19/19 18/18/18 17/17/17
f 20/20/20 19/19/19 17/17/17
f 23/23/23 22/22/22 21/21/21
f 24/24/24 23/23/23 21/21/21
v 249.1 -61 611.7
v 250.1 -61 611.7
v 249.1 89 611.7
v 250.1 89 611.7
v 249.1 89 -188.3
v 250.1 89 -188.3
v 249.1 -61 -188.3
v 250.1 -61 -188.3
v 249.1 89 611.7
v 250.1 89 611.7
v 249.1 89 -188.3
v 250.1 89 -188.3
v 249.1 -61 -188.3
v 249.1 -61 611.7
v 250.1 -61 611.7
v 250.1 -61 -188.3
v 250.1 -61 611.7
v 250.1 89 611.7
v 250.1 89 -188.3
v 250.1 -61 -188.3
v 249.1 -61 -188.3
v 249.1 89 -188.3
v 249.1 89 611.7
v 249.1 -61 611.7
vn 0 0 0.9828714
vn 0 0 0.9828714
vn 0 0 0.9828714
vn 0 0 0.9828714
vn 0 0.1842884 0
vn 0 0.1842884 0
vn 0 0 -0.9828714
vn 0 0 -0.9828714
vn 0 0.1842884 0
vn 0 0.1842884 0
vn 0 0 -0.9828714
vn 0 0 -0.9828714
vn 0 -0.1842884 0
vn 0 -0.1842884 0
vn 0 -0.1842884 0
vn 0 -0.1842884 0
vn 0.001228589 0 0
vn 0.001228589 0 0
vn 0.001228589 0 0
vn 0.001228589 0 0
vn -0.001228589 0 0
vn -0.001228589 0 0
vn -0.001228589 0 0
vn -0.001228589 0 0
vt 0 0
vt 1 0
vt 0 1
vt 1 1
vt 0 1
vt 1 1
vt 0 1
vt 1 1
vt 0 0
vt 1 0
vt 0 0
vt 1 0
vt 0 0
vt 0 1
vt 1 1
vt 1 0
vt 0 0
vt 0 1
vt 1 1
vt 1 0
vt 0 0
vt 0 1
vt 1 1
vt 1 0
usemtl graduation_depart_top
f 28/28/28 27/27/27 25/25/25
f 26/26/26 28/28/28 25/25/25
f 30/30/30 29/29/29 33/33/33
f 34/34/34 30/30/30 33/33/33
f 32/32/32 31/31/31 35/35/35
f 36/36/36 32/32/32 35/35/35
f 39/39/39 38/38/38 37/37/37
f 40/40/40 39/39/39 37/37/37
f 43/43/43 42/42/42 41/41/41
f 44/44/44 43/43/43 41/41/41
f 47/47/47 46/46/46 45/45/45
f 48/48/48 47/47/47 45/45/45
v -301.1 -61.3 610
v -300.1 -61.3 610
v -301.1 88.7 610
v -300.1 88.7 610
v -301.1 88.7 -190
v -300.1 88.7 -190
v -301.1 -61.3 -190
v -300.1 -61.3 -190
v -301.1 88.7 610
v -300.1 88.7 610
v -301.1 88.7 -190
v -300.1 88.7 -190
v -301.1 -61.3 -190
v -301.1 -61.3 610
v -300.1 -61.3 610
v -300.1 -61.3 -190
v -300.1 -61.3 610
v -300.1 88.7 610
v -300.1 88.7 -190
v -300.1 -61.3 -190
v -301.1 -61.3 -190
v -301.1 88.7 -190
v -301.1 88.7 610
v -301.1 -61.3 610
vn 0 0 0.9828714
vn 0 0 0.9828714
vn 0 0 0.9828714
vn 0 0 0.9828714
vn 0 0.1842884 0
vn 0 0.1842884 0
vn 0 0 -0.9828714
vn 0 0 -0.9828714
vn 0 0.1842884 0
vn 0 0.1842884 0
vn 0 0 -0.9828714
vn 0 0 -0.9828714
vn 0 -0.1842884 0
vn 0 -0.1842884 0
vn 0 -0.1842884 0
vn 0 -0.1842884 0
vn 0.001228589 0 0
vn 0.001228589 0 0
vn 0.001228589 0 0
vn 0.001228589 0 0
vn -0.001228589 0 0
vn -0.001228589 0 0
vn -0.001228589 0 0
vn -0.001228589 0 0
vt 0 0
vt 1 0
vt 0 1
vt 1 1
vt 0 1
vt 1 1
vt 0 1
vt 1 1
vt 0 0
vt 1 0
vt 0 0
vt 1 0
vt 0 0
vt 0 1
vt 1 1
vt 1 0
vt 0 0
vt 0 1
vt 1 1
vt 1 0
vt 0 0
vt 0 1
vt 1 1
vt 1 0
usemtl byebye
f 52/52/52 51/51/51 49/49/49
f 50/50/50 52/52/52 49/49/49
f 54/54/54 53/53/53 57/57/57
f 58/58/58 54/54/54 57/57/57
f 56/56/56 55/55/55 59/59/59
f 60/60/60 56/56/56 59/59/59
f 63/63/63 62/62/62 61/61/61
f 64/64/64 63/63/63 61/61/61
f 67/67/67 66/66/66 65/65/65
f 68/68/68 67/67/67 65/65/65
f 71/71/71 70/70/70 69/69/69
f 72/72/72 71/71/71 69/69/69
v -317.0001 -61.3 584.4999
v -317.0001 -61.3 585.4999
v -317.0001 88.7 584.4999
v -317.0001 88.7 585.4999
v 283.0001 88.7 584.5001
v 283.0001 88.7 585.5001
v 283.0001 -61.3 584.5001
v 283.0001 -61.3 585.5001
v -317.0001 88.7 584.4999
v -317.0001 88.7 585.4999
v 283.0001 88.7 584.5001
v 283.0001 88.7 585.5001
v 283.0001 -61.3 584.5001
v -317.0001 -61.3 584.4999
v -317.0001 -61.3 585.4999
v 283.0001 -61.3 585.5001
v -317.0001 -61.3 585.4999
v -317.0001 88.7 585.4999
v 283.0001 88.7 585.5001
v 283.0001 -61.3 585.5001
v 283.0001 -61.3 584.5001
v 283.0001 88.7 584.5001
v -317.0001 88.7 584.4999
v -317.0001 -61.3 584.4999
vn -0.9701414 0 -1.156498E-07
vn -0.9701414 0 -1.156498E-07
vn -0.9701414 0 -1.156498E-07
vn -0.9701414 0 -1.156498E-07
vn 0 0.2425352 0
vn 0 0.2425352 0
vn 0.9701414 0 1.156498E-07
vn 0.9701414 0 1.156498E-07
vn 0 0.2425352 0
vn 0 0.2425352 0
vn 0.9701414 0 1.156498E-07
vn 0.9701414 0 1.156498E-07
vn 0 -0.2425352 0
vn 0 -0.2425352 0
vn 0 -0.2425352 0
vn 0 -0.2425352 0
vn -1.927497E-10 0 0.001616902
vn -1.927497E-10 0 0.001616902
vn -1.927497E-10 0 0.001616902
vn -1.927497E-10 0 0.001616902
vn 1.927497E-10 0 -0.001616902
vn 1.927497E-10 0 -0.001616902
vn 1.927497E-10 0 -0.001616902
vn 1.927497E-10 0 -0.001616902
vt 0 0
vt 1 0
vt 0 1
vt 1 1
vt 0 1
vt 1 1
vt 0 1
vt 1 1
vt 0 0
vt 1 0
vt 0 0
vt 1 0
vt 0 0
vt 0 1
vt 1 1
vt 1 0
vt 0 0
vt 0 1
vt 1 1
vt 1 0
vt 0 0
vt 0 1
vt 1 1
vt 1 0
usemtl mainVis01
f 76/76/76 75/75/75 73/73/73
f 74/74/74 76/76/76 73/73/73
f 78/78/78 77/77/77 81/81/81
f 82/82/82 78/78/78 81/81/81
f 80/80/80 79/79/79 83/83/83
f 84/84/84 80/80/80 83/83/83
f 87/87/87 86/86/86 85/85/85
f 88/88/88 87/87/87 85/85/85
f 91/91/91 90/90/90 89/89/89
f 92/92/92 91/91/91 89/89/89
f 95/95/95 94/94/94 93/93/93
f 96/96/96 95/95/95 93/93/93
