# Export of SampleScene
# from Aaro4130 OBJ Exporter v2.0
mtllib aplus3.mtl
v 3.172 -126.9494 751.4509
v 3.172 -128.7221 751.1384
v 3.772 -126.9494 751.4509
v 3.772 -128.7221 751.1384
v 3.772 -126.8452 750.86
v 3.772 -128.6179 750.5475
v 3.172 -126.8452 750.86
v 3.172 -128.6179 750.5475
v 3.772 -126.9494 751.4509
v 3.772 -128.7221 751.1384
v 3.772 -126.8452 750.86
v 3.772 -128.6179 750.5475
v 3.172 -126.8452 750.86
v 3.172 -126.9494 751.4509
v 3.172 -128.7221 751.1384
v 3.172 -128.6179 750.5475
v 3.172 -128.7221 751.1384
v 3.772 -128.7221 751.1384
v 3.772 -128.6179 750.5475
v 3.172 -128.6179 750.5475
v 3.172 -126.8452 750.86
v 3.772 -126.8452 750.86
v 3.772 -126.9494 751.4509
v 3.172 -126.9494 751.4509
vn 0 -0.05235692 0.2969306
vn 0 -0.05235692 0.2969306
vn 0 -0.05235692 0.2969306
vn 0 -0.05235692 0.2969306
vn 0.3015114 -5.279121E-08 0
vn 0.3015114 -5.279121E-08 0
vn 0 0.05235692 -0.2969306
vn 0 0.05235692 -0.2969306
vn 0.3015114 -5.279121E-08 0
vn 0.3015114 -5.279121E-08 0
vn 0 0.05235692 -0.2969306
vn 0 0.05235692 -0.2969306
vn -0.3015114 5.279121E-08 0
vn -0.3015114 5.279121E-08 0
vn -0.3015114 5.279121E-08 0
vn -0.3015114 5.279121E-08 0
vn -1.583736E-07 -0.8907923 -0.1570708
vn -1.583736E-07 -0.8907923 -0.1570708
vn -1.583736E-07 -0.8907923 -0.1570708
vn -1.583736E-07 -0.8907923 -0.1570708
vn 1.583736E-07 0.8907923 0.1570708
vn 1.583736E-07 0.8907923 0.1570708
vn 1.583736E-07 0.8907923 0.1570708
vn 1.583736E-07 0.8907923 0.1570708
vt 0 0
vt 1 0
vt 0 1
vt 1 1
vt 0 1
vt 1 1
vt 0 1
vt 1 1
vt 0 0
vt 1 0
vt 0 0
vt 1 0
vt 0 0
vt 0 1
vt 1 1
vt 1 0
vt 0 0
vt 0 1
vt 1 1
vt 1 0
vt 0 0
vt 0 1
vt 1 1
vt 1 0
usemtl New Material
f 4/4/4 3/3/3 1/1/1
f 2/2/2 4/4/4 1/1/1
f 6/6/6 5/5/5 9/9/9
f 10/10/10 6/6/6 9/9/9
f 8/8/8 7/7/7 11/11/11
f 12/12/12 8/8/8 11/11/11
f 15/15/15 14/14/14 13/13/13
f 16/16/16 15/15/15 13/13/13
f 19/19/19 18/18/18 17/17/17
f 20/20/20 19/19/19 17/17/17
f 23/23/23 22/22/22 21/21/21
f 24/24/24 23/23/23 21/21/21
v 5.050012 -129.6114 750.9816
v 6.850012 -129.6114 750.9816
v 5.050012 -129.0205 751.0858
v 6.850012 -129.0205 751.0858
v 5.050012 -128.9163 750.4949
v 6.850012 -128.9163 750.4949
v 5.050012 -129.5072 750.3907
v 6.850012 -129.5072 750.3907
v 5.050012 -129.0205 751.0858
v 6.850012 -129.0205 751.0858
v 5.050012 -128.9163 750.4949
v 6.850012 -128.9163 750.4949
v 5.050012 -129.5072 750.3907
v 5.050012 -129.6114 750.9816
v 6.850012 -129.6114 750.9816
v 6.850012 -129.5072 750.3907
v 6.850012 -129.6114 750.9816
v 6.850012 -129.0205 751.0858
v 6.850012 -128.9163 750.4949
v 6.850012 -129.5072 750.3907
v 5.050012 -129.5072 750.3907
v 5.050012 -128.9163 750.4949
v 5.050012 -129.0205 751.0858
v 5.050012 -129.6114 750.9816
vn 0 -0.05235691 0.2969307
vn 0 -0.05235691 0.2969307
vn 0 -0.05235691 0.2969307
vn 0 -0.05235691 0.2969307
vn 0 0.2969307 0.05235691
vn 0 0.2969307 0.05235691
vn 0 0.05235691 -0.2969307
vn 0 0.05235691 -0.2969307
vn 0 0.2969307 0.05235691
vn 0 0.2969307 0.05235691
vn 0 0.05235691 -0.2969307
vn 0 0.05235691 -0.2969307
vn 0 -0.2969307 -0.05235691
vn 0 -0.2969307 -0.05235691
vn 0 -0.2969307 -0.05235691
vn 0 -0.2969307 -0.05235691
vn 0.904534 0 0
vn 0.904534 0 0
vn 0.904534 0 0
vn 0.904534 0 0
vn -0.904534 0 0
vn -0.904534 0 0
vn -0.904534 0 0
vn -0.904534 0 0
vt 0 0
vt 1 0
vt 0 1
vt 1 1
vt 0 1
vt 1 1
vt 0 1
vt 1 1
vt 0 0
vt 1 0
vt 0 0
vt 1 0
vt 0 0
vt 0 1
vt 1 1
vt 1 0
vt 0 0
vt 0 1
vt 1 1
vt 1 0
vt 0 0
vt 0 1
vt 1 1
vt 1 0
usemtl New Material
f 28/28/28 27/27/27 25/25/25
f 26/26/26 28/28/28 25/25/25
f 30/30/30 29/29/29 33/33/33
f 34/34/34 30/30/30 33/33/33
f 32/32/32 31/31/31 35/35/35
f 36/36/36 32/32/32 35/35/35
f 39/39/39 38/38/38 37/37/37
f 40/40/40 39/39/39 37/37/37
f 43/43/43 42/42/42 41/41/41
f 44/44/44 43/43/43 41/41/41
f 47/47/47 46/46/46 45/45/45
f 48/48/48 47/47/47 45/45/45
v 5.507512 -126.9317 751.4541
v 6.392512 -126.9317 751.4541
v 5.507512 -126.6363 751.5062
v 6.392512 -126.6363 751.5062
v 5.507512 -126.5321 750.9153
v 6.392512 -126.5321 750.9153
v 5.507512 -126.8275 750.8632
v 6.392512 -126.8275 750.8632
v 5.507512 -126.6363 751.5062
v 6.392512 -126.6363 751.5062
v 5.507512 -126.5321 750.9153
v 6.392512 -126.5321 750.9153
v 5.507512 -126.8275 750.8632
v 5.507512 -126.9317 751.4541
v 6.392512 -126.9317 751.4541
v 6.392512 -126.8275 750.8632
v 6.392512 -126.9317 751.4541
v 6.392512 -126.6363 751.5062
v 6.392512 -126.5321 750.9153
v 6.392512 -126.8275 750.8632
v 5.507512 -126.8275 750.8632
v 5.507512 -126.5321 750.9153
v 5.507512 -126.6363 751.5062
v 5.507512 -126.9317 751.4541
vn 0 -0.09382109 0.5320856
vn 0 -0.09382109 0.5320856
vn 0 -0.09382109 0.5320856
vn 0 -0.09382109 0.5320856
vn 0 0.2660428 0.04691054
vn 0 0.2660428 0.04691054
vn 0 0.09382109 -0.5320856
vn 0 0.09382109 -0.5320856
vn 0 0.2660428 0.04691054
vn 0 0.2660428 0.04691054
vn 0 0.09382109 -0.5320856
vn 0 0.09382109 -0.5320856
vn 0 -0.2660428 -0.04691054
vn 0 -0.2660428 -0.04691054
vn 0 -0.2660428 -0.04691054
vn 0 -0.2660428 -0.04691054
vn 0.7969335 0 0
vn 0.7969335 0 0
vn 0.7969335 0 0
vn 0.7969335 0 0
vn -0.7969335 0 0
vn -0.7969335 0 0
vn -0.7969335 0 0
vn -0.7969335 0 0
vt 0 0
vt 1 0
vt 0 1
vt 1 1
vt 0 1
vt 1 1
vt 0 1
vt 1 1
vt 0 0
vt 1 0
vt 0 0
vt 1 0
vt 0 0
vt 0 1
vt 1 1
vt 1 0
vt 0 0
vt 0 1
vt 1 1
vt 1 0
vt 0 0
vt 0 1
vt 1 1
vt 1 0
usemtl New Material
f 52/52/52 51/51/51 49/49/49
f 50/50/50 52/52/52 49/49/49
f 54/54/54 53/53/53 57/57/57
f 58/58/58 54/54/54 57/57/57
f 56/56/56 55/55/55 59/59/59
f 60/60/60 56/56/56 59/59/59
f 63/63/63 62/62/62 61/61/61
f 64/64/64 63/63/63 61/61/61
f 67/67/67 66/66/66 65/65/65
f 68/68/68 67/67/67 65/65/65
f 71/71/71 70/70/70 69/69/69
f 72/72/72 71/71/71 69/69/69
v 4.345882 -130.9159 750.7515
v 4.925437 -131.0689 750.7245
v 5.510567 -126.6353 751.5063
v 6.090123 -126.7882 751.4794
v 5.510567 -126.5311 750.9155
v 6.090123 -126.684 750.8885
v 4.345882 -130.8117 750.1606
v 4.925437 -130.9647 750.1337
v 5.510567 -126.6353 751.5063
v 6.090123 -126.7882 751.4794
v 5.510567 -126.5311 750.9155
v 6.090123 -126.684 750.8885
v 4.345882 -130.8117 750.1606
v 4.345882 -130.9159 750.7515
v 4.925437 -131.0689 750.7245
v 4.925437 -130.9647 750.1337
v 4.925437 -131.0689 750.7245
v 6.090123 -126.7882 751.4794
v 6.090123 -126.684 750.8885
v 4.925437 -130.9647 750.1337
v 4.345882 -130.8117 750.1606
v 5.510567 -126.5311 750.9155
v 5.510567 -126.6353 751.5063
v 4.345882 -130.9159 750.7515
vn -2.440519E-10 -0.02275215 0.1290338
vn -2.440519E-10 -0.02275215 0.1290338
vn -2.440519E-10 -0.02275215 0.1290338
vn -2.440519E-10 -0.02275215 0.1290338
vn 0.254337 0.9347781 0.1648267
vn 0.254337 0.9347781 0.1648267
vn 2.440519E-10 0.02275215 -0.1290338
vn 2.440519E-10 0.02275215 -0.1290338
vn 0.254337 0.9347781 0.1648267
vn 0.254337 0.9347781 0.1648267
vn 2.440519E-10 0.02275215 -0.1290338
vn 2.440519E-10 0.02275215 -0.1290338
vn -0.254337 -0.9347781 -0.1648267
vn -0.254337 -0.9347781 -0.1648267
vn -0.254337 -0.9347781 -0.1648267
vn -0.254337 -0.9347781 -0.1648267
vn 0.1265598 -0.0333964 -0.005888689
vn 0.1265598 -0.0333964 -0.005888689
vn 0.1265598 -0.0333964 -0.005888689
vn 0.1265598 -0.0333964 -0.005888689
vn -0.1265598 0.0333964 0.005888689
vn -0.1265598 0.0333964 0.005888689
vn -0.1265598 0.0333964 0.005888689
vn -0.1265598 0.0333964 0.005888689
vt 0 0
vt 1 0
vt 0 1
vt 1 1
vt 0 1
vt 1 1
vt 0 1
vt 1 1
vt 0 0
vt 1 0
vt 0 0
vt 1 0
vt 0 0
vt 0 1
vt 1 1
vt 1 0
vt 0 0
vt 0 1
vt 1 1
vt 1 0
vt 0 0
vt 0 1
vt 1 1
vt 1 0
usemtl New Material
f 76/76/76 75/75/75 73/73/73
f 74/74/74 76/76/76 73/73/73
f 78/78/78 77/77/77 81/81/81
f 82/82/82 78/78/78 81/81/81
f 80/80/80 79/79/79 83/83/83
f 84/84/84 80/80/80 83/83/83
f 87/87/87 86/86/86 85/85/85
f 88/88/88 87/87/87 85/85/85
f 91/91/91 90/90/90 89/89/89
f 92/92/92 91/91/91 89/89/89
f 95/95/95 94/94/94 93/93/93
f 96/96/96 95/95/95 93/93/93
v 2.572 -128.1312 751.2426
v 4.372 -128.1312 751.2426
v 2.572 -127.5403 751.3467
v 4.372 -127.5403 751.3467
v 2.572 -127.4361 750.7559
v 4.372 -127.4361 750.7559
v 2.572 -128.027 750.6517
v 4.372 -128.027 750.6517
v 2.572 -127.5403 751.3467
v 4.372 -127.5403 751.3467
v 2.572 -127.4361 750.7559
v 4.372 -127.4361 750.7559
v 2.572 -128.027 750.6517
v 2.572 -128.1312 751.2426
v 4.372 -128.1312 751.2426
v 4.372 -128.027 750.6517
v 4.372 -128.1312 751.2426
v 4.372 -127.5403 751.3467
v 4.372 -127.4361 750.7559
v 4.372 -128.027 750.6517
v 2.572 -128.027 750.6517
v 2.572 -127.4361 750.7559
v 2.572 -127.5403 751.3467
v 2.572 -128.1312 751.2426
vn 0 -0.05235691 0.2969307
vn 0 -0.05235691 0.2969307
vn 0 -0.05235691 0.2969307
vn 0 -0.05235691 0.2969307
vn 0 0.2969307 0.05235691
vn 0 0.2969307 0.05235691
vn 0 0.05235691 -0.2969307
vn 0 0.05235691 -0.2969307
vn 0 0.2969307 0.05235691
vn 0 0.2969307 0.05235691
vn 0 0.05235691 -0.2969307
vn 0 0.05235691 -0.2969307
vn 0 -0.2969307 -0.05235691
vn 0 -0.2969307 -0.05235691
vn 0 -0.2969307 -0.05235691
vn 0 -0.2969307 -0.05235691
vn 0.904534 0 0
vn 0.904534 0 0
vn 0.904534 0 0
vn 0.904534 0 0
vn -0.904534 0 0
vn -0.904534 0 0
vn -0.904534 0 0
vn -0.904534 0 0
vt 0 0
vt 1 0
vt 0 1
vt 1 1
vt 0 1
vt 1 1
vt 0 1
vt 1 1
vt 0 0
vt 1 0
vt 0 0
vt 1 0
vt 0 0
vt 0 1
vt 1 1
vt 1 0
vt 0 0
vt 0 1
vt 1 1
vt 1 0
vt 0 0
vt 0 1
vt 1 1
vt 1 0
usemtl New Material
f 100/100/100 99/99/99 97/97/97
f 98/98/98 100/100/100 97/97/97
f 102/102/102 101/101/101 105/105/105
f 106/106/106 102/102/102 105/105/105
f 104/104/104 103/103/103 107/107/107
f 108/108/108 104/104/104 107/107/107
f 111/111/111 110/110/110 109/109/109
f 112/112/112 111/111/111 109/109/109
f 115/115/115 114/114/114 113/113/113
f 116/116/116 115/115/115 113/113/113
f 119/119/119 118/118/118 117/117/117
f 120/120/120 119/119/119 117/117/117
v 6.980569 -131.0689 750.7245
v 7.560124 -130.9159 750.7515
v 5.815883 -126.7882 751.4794
v 6.395438 -126.6353 751.5063
v 5.815883 -126.684 750.8885
v 6.395438 -126.5311 750.9155
v 6.980569 -130.9647 750.1337
v 7.560124 -130.8117 750.1606
v 5.815883 -126.7882 751.4794
v 6.395438 -126.6353 751.5063
v 5.815883 -126.684 750.8885
v 6.395438 -126.5311 750.9155
v 6.980569 -130.9647 750.1337
v 6.980569 -131.0689 750.7245
v 7.560124 -130.9159 750.7515
v 7.560124 -130.8117 750.1606
v 7.560124 -130.9159 750.7515
v 6.395438 -126.6353 751.5063
v 6.395438 -126.5311 750.9155
v 7.560124 -130.8117 750.1606
v 6.980569 -130.9647 750.1337
v 5.815883 -126.684 750.8885
v 5.815883 -126.7882 751.4794
v 6.980569 -131.0689 750.7245
vn 4.881037E-10 -0.02275215 0.1290338
vn 4.881037E-10 -0.02275215 0.1290338
vn 4.881037E-10 -0.02275215 0.1290338
vn 4.881037E-10 -0.02275215 0.1290338
vn -0.2543371 0.934778 0.1648267
vn -0.2543371 0.934778 0.1648267
vn -4.881037E-10 0.02275215 -0.1290338
vn -4.881037E-10 0.02275215 -0.1290338
vn -0.2543371 0.934778 0.1648267
vn -0.2543371 0.934778 0.1648267
vn -4.881037E-10 0.02275215 -0.1290338
vn -4.881037E-10 0.02275215 -0.1290338
vn 0.2543371 -0.934778 -0.1648267
vn 0.2543371 -0.934778 -0.1648267
vn 0.2543371 -0.934778 -0.1648267
vn 0.2543371 -0.934778 -0.1648267
vn 0.1265598 0.03339642 0.005888693
vn 0.1265598 0.03339642 0.005888693
vn 0.1265598 0.03339642 0.005888693
vn 0.1265598 0.03339642 0.005888693
vn -0.1265598 -0.03339642 -0.005888693
vn -0.1265598 -0.03339642 -0.005888693
vn -0.1265598 -0.03339642 -0.005888693
vn -0.1265598 -0.03339642 -0.005888693
vt 0 0
vt 1 0
vt 0 1
vt 1 1
vt 0 1
vt 1 1
vt 0 1
vt 1 1
vt 0 0
vt 1 0
vt 0 0
vt 1 0
vt 0 0
vt 0 1
vt 1 1
vt 1 0
vt 0 0
vt 0 1
vt 1 1
vt 1 0
vt 0 0
vt 0 1
vt 1 1
vt 1 0
usemtl New Material
f 124/124/124 123/123/123 121/121/121
f 122/122/122 124/124/124 121/121/121
f 126/126/126 125/125/125 129/129/129
f 130/130/130 126/126/126 129/129/129
f 128/128/128 127/127/127 131/131/131
f 132/132/132 128/128/128 131/131/131
f 135/135/135 134/134/134 133/133/133
f 136/136/136 135/135/135 133/133/133
f 139/139/139 138/138/138 137/137/137
f 140/140/140 139/139/139 137/137/137
f 143/143/143 142/142/142 141/141/141
f 144/144/144 143/143/143 141/141/141
