# Export of SampleScene
# from Aaro4130 OBJ Exporter v2.0
mtllib aplus5.mtl
v -31.05092 -205.6394 1194.282
v -30.73836 -207.4121 1194.282
v -31.05092 -205.6394 1194.882
v -30.73836 -207.4121 1194.882
v -30.46004 -205.5352 1194.882
v -30.14747 -207.3079 1194.882
v -30.46004 -205.5352 1194.282
v -30.14747 -207.3079 1194.282
v -31.05092 -205.6394 1194.882
v -30.73836 -207.4121 1194.882
v -30.46004 -205.5352 1194.882
v -30.14747 -207.3079 1194.882
v -30.46004 -205.5352 1194.282
v -31.05092 -205.6394 1194.282
v -30.73836 -207.4121 1194.282
v -30.14747 -207.3079 1194.282
v -30.73836 -207.4121 1194.282
v -30.73836 -207.4121 1194.882
v -30.14747 -207.3079 1194.882
v -30.14747 -207.3079 1194.282
v -30.46004 -205.5352 1194.282
v -30.46004 -205.5352 1194.882
v -31.05092 -205.6394 1194.882
v -31.05092 -205.6394 1194.282
vn -0.2969307 -0.05235692 -2.695721E-08
vn -0.2969307 -0.05235692 -2.695721E-08
vn -0.2969307 -0.05235692 -2.695721E-08
vn -0.2969307 -0.05235692 -2.695721E-08
vn 0 -2.695722E-08 0.3015114
vn 0 -2.695722E-08 0.3015114
vn 0.2969307 0.05235692 2.695721E-08
vn 0.2969307 0.05235692 2.695721E-08
vn 0 -2.695722E-08 0.3015114
vn 0 -2.695722E-08 0.3015114
vn 0.2969307 0.05235692 2.695721E-08
vn 0.2969307 0.05235692 2.695721E-08
vn 0 2.695722E-08 -0.3015114
vn 0 2.695722E-08 -0.3015114
vn 0 2.695722E-08 -0.3015114
vn 0 2.695722E-08 -0.3015114
vn 0.1570707 -0.8907923 0
vn 0.1570707 -0.8907923 0
vn 0.1570707 -0.8907923 0
vn 0.1570707 -0.8907923 0
vn -0.1570707 0.8907923 0
vn -0.1570707 0.8907923 0
vn -0.1570707 0.8907923 0
vn -0.1570707 0.8907923 0
vt 0 0
vt 1 0
vt 0 1
vt 1 1
vt 0 1
vt 1 1
vt 0 1
vt 1 1
vt 0 0
vt 1 0
vt 0 0
vt 1 0
vt 0 0
vt 0 1
vt 1 1
vt 1 0
vt 0 0
vt 0 1
vt 1 1
vt 1 0
vt 0 0
vt 0 1
vt 1 1
vt 1 0
usemtl New Material
f 4/4/4 3/3/3 1/1/1
f 2/2/2 4/4/4 1/1/1
f 6/6/6 5/5/5 9/9/9
f 10/10/10 6/6/6 9/9/9
f 8/8/8 7/7/7 11/11/11
f 12/12/12 8/8/8 11/11/11
f 15/15/15 14/14/14 13/13/13
f 16/16/16 15/15/15 13/13/13
f 19/19/19 18/18/18 17/17/17
f 20/20/20 19/19/19 17/17/17
f 23/23/23 22/22/22 21/21/21
f 24/24/24 23/23/23 21/21/21
v -30.58156 -208.3014 1196.16
v -30.58156 -208.3014 1197.96
v -30.68575 -207.7105 1196.16
v -30.68575 -207.7105 1197.96
v -30.09486 -207.6063 1196.16
v -30.09486 -207.6063 1197.96
v -29.99067 -208.1972 1196.16
v -29.99067 -208.1972 1197.96
v -30.68575 -207.7105 1196.16
v -30.68575 -207.7105 1197.96
v -30.09486 -207.6063 1196.16
v -30.09486 -207.6063 1197.96
v -29.99067 -208.1972 1196.16
v -30.58156 -208.3014 1196.16
v -30.58156 -208.3014 1197.96
v -29.99067 -208.1972 1197.96
v -30.58156 -208.3014 1197.96
v -30.68575 -207.7105 1197.96
v -30.09486 -207.6063 1197.96
v -29.99067 -208.1972 1197.96
v -29.99067 -208.1972 1196.16
v -30.09486 -207.6063 1196.16
v -30.68575 -207.7105 1196.16
v -30.58156 -208.3014 1196.16
vn -0.2969307 -0.05235692 -1.684826E-08
vn -0.2969307 -0.05235692 -1.684826E-08
vn -0.2969307 -0.05235692 -1.684826E-08
vn -0.2969307 -0.05235692 -1.684826E-08
vn -0.05235692 0.2969307 0
vn -0.05235692 0.2969307 0
vn 0.2969307 0.05235692 1.684826E-08
vn 0.2969307 0.05235692 1.684826E-08
vn -0.05235692 0.2969307 0
vn -0.05235692 0.2969307 0
vn 0.2969307 0.05235692 1.684826E-08
vn 0.2969307 0.05235692 1.684826E-08
vn 0.05235692 -0.2969307 0
vn 0.05235692 -0.2969307 0
vn 0.05235692 -0.2969307 0
vn 0.05235692 -0.2969307 0
vn -5.054478E-08 0 0.9045341
vn -5.054478E-08 0 0.9045341
vn -5.054478E-08 0 0.9045341
vn -5.054478E-08 0 0.9045341
vn 5.054478E-08 0 -0.9045341
vn 5.054478E-08 0 -0.9045341
vn 5.054478E-08 0 -0.9045341
vn 5.054478E-08 0 -0.9045341
vt 0 0
vt 1 0
vt 0 1
vt 1 1
vt 0 1
vt 1 1
vt 0 1
vt 1 1
vt 0 0
vt 1 0
vt 0 0
vt 1 0
vt 0 0
vt 0 1
vt 1 1
vt 1 0
vt 0 0
vt 0 1
vt 1 1
vt 1 0
vt 0 0
vt 0 1
vt 1 1
vt 1 0
usemtl New Material
f 28/28/28 27/27/27 25/25/25
f 26/26/26 28/28/28 25/25/25
f 30/30/30 29/29/29 33/33/33
f 34/34/34 30/30/30 33/33/33
f 32/32/32 31/31/31 35/35/35
f 36/36/36 32/32/32 35/35/35
f 39/39/39 38/38/38 37/37/37
f 40/40/40 39/39/39 37/37/37
f 43/43/43 42/42/42 41/41/41
f 44/44/44 43/43/43 41/41/41
f 47/47/47 46/46/46 45/45/45
f 48/48/48 47/47/47 45/45/45
v -30.84254 -206.8212 1193.682
v -30.84254 -206.8212 1195.482
v -30.94673 -206.2303 1193.682
v -30.94673 -206.2303 1195.482
v -30.35585 -206.1261 1193.682
v -30.35585 -206.1261 1195.482
v -30.25166 -206.717 1193.682
v -30.25166 -206.717 1195.482
v -30.94673 -206.2303 1193.682
v -30.94673 -206.2303 1195.482
v -30.35585 -206.1261 1193.682
v -30.35585 -206.1261 1195.482
v -30.25166 -206.717 1193.682
v -30.84254 -206.8212 1193.682
v -30.84254 -206.8212 1195.482
v -30.25166 -206.717 1195.482
v -30.84254 -206.8212 1195.482
v -30.94673 -206.2303 1195.482
v -30.35585 -206.1261 1195.482
v -30.25166 -206.717 1195.482
v -30.25166 -206.717 1193.682
v -30.35585 -206.1261 1193.682
v -30.94673 -206.2303 1193.682
v -30.84254 -206.8212 1193.682
vn -0.2969307 -0.05235692 -1.684826E-08
vn -0.2969307 -0.05235692 -1.684826E-08
vn -0.2969307 -0.05235692 -1.684826E-08
vn -0.2969307 -0.05235692 -1.684826E-08
vn -0.05235692 0.2969307 0
vn -0.05235692 0.2969307 0
vn 0.2969307 0.05235692 1.684826E-08
vn 0.2969307 0.05235692 1.684826E-08
vn -0.05235692 0.2969307 0
vn -0.05235692 0.2969307 0
vn 0.2969307 0.05235692 1.684826E-08
vn 0.2969307 0.05235692 1.684826E-08
vn 0.05235692 -0.2969307 0
vn 0.05235692 -0.2969307 0
vn 0.05235692 -0.2969307 0
vn 0.05235692 -0.2969307 0
vn -5.054478E-08 0 0.9045341
vn -5.054478E-08 0 0.9045341
vn -5.054478E-08 0 0.9045341
vn -5.054478E-08 0 0.9045341
vn 5.054478E-08 0 -0.9045341
vn 5.054478E-08 0 -0.9045341
vn 5.054478E-08 0 -0.9045341
vn 5.054478E-08 0 -0.9045341
vt 0 0
vt 1 0
vt 0 1
vt 1 1
vt 0 1
vt 1 1
vt 0 1
vt 1 1
vt 0 0
vt 1 0
vt 0 0
vt 1 0
vt 0 0
vt 0 1
vt 1 1
vt 1 0
vt 0 0
vt 0 1
vt 1 1
vt 1 0
vt 0 0
vt 0 1
vt 1 1
vt 1 0
usemtl New Material
f 52/52/52 51/51/51 49/49/49
f 50/50/50 52/52/52 49/49/49
f 54/54/54 53/53/53 57/57/57
f 58/58/58 54/54/54 57/57/57
f 56/56/56 55/55/55 59/59/59
f 60/60/60 56/56/56 59/59/59
f 63/63/63 62/62/62 61/61/61
f 64/64/64 63/63/63 61/61/61
f 67/67/67 66/66/66 65/65/65
f 68/68/68 67/67/67 65/65/65
f 71/71/71 70/70/70 69/69/69
f 72/72/72 71/71/71 69/69/69
v -30.32456 -209.7589 1198.091
v -30.35153 -209.6059 1198.67
v -31.07935 -205.4782 1196.926
v -31.10632 -205.3253 1197.505
v -30.48847 -205.3741 1196.926
v -30.51543 -205.2211 1197.505
v -29.73368 -209.6547 1198.091
v -29.76064 -209.5017 1198.67
v -31.07935 -205.4782 1196.926
v -31.10632 -205.3253 1197.505
v -30.48847 -205.3741 1196.926
v -30.51543 -205.2211 1197.505
v -29.73368 -209.6547 1198.091
v -30.32456 -209.7589 1198.091
v -30.35153 -209.6059 1198.67
v -29.76064 -209.5017 1198.67
v -30.35153 -209.6059 1198.67
v -31.10632 -205.3253 1197.505
v -30.51543 -205.2211 1197.505
v -29.76064 -209.5017 1198.67
v -29.73368 -209.6547 1198.091
v -30.48847 -205.3741 1196.926
v -31.07935 -205.4782 1196.926
v -30.32456 -209.7589 1198.091
vn -0.1290338 -0.02275215 -1.433805E-09
vn -0.1290338 -0.02275215 -1.433805E-09
vn -0.1290338 -0.02275215 -1.433805E-09
vn -0.1290338 -0.02275215 -1.433805E-09
vn -0.1648267 0.934778 -0.2543371
vn -0.1648267 0.934778 -0.2543371
vn 0.1290338 0.02275215 1.433805E-09
vn 0.1290338 0.02275215 1.433805E-09
vn -0.1648267 0.934778 -0.2543371
vn -0.1648267 0.934778 -0.2543371
vn 0.1290338 0.02275215 1.433805E-09
vn 0.1290338 0.02275215 1.433805E-09
vn 0.1648267 -0.934778 0.2543371
vn 0.1648267 -0.934778 0.2543371
vn 0.1648267 -0.934778 0.2543371
vn 0.1648267 -0.934778 0.2543371
vn -0.005888694 0.03339642 0.1265598
vn -0.005888694 0.03339642 0.1265598
vn -0.005888694 0.03339642 0.1265598
vn -0.005888694 0.03339642 0.1265598
vn 0.005888694 -0.03339642 -0.1265598
vn 0.005888694 -0.03339642 -0.1265598
vn 0.005888694 -0.03339642 -0.1265598
vn 0.005888694 -0.03339642 -0.1265598
vt 0 0
vt 1 0
vt 0 1
vt 1 1
vt 0 1
vt 1 1
vt 0 1
vt 1 1
vt 0 0
vt 1 0
vt 0 0
vt 1 0
vt 0 0
vt 0 1
vt 1 1
vt 1 0
vt 0 0
vt 0 1
vt 1 1
vt 1 0
vt 0 0
vt 0 1
vt 1 1
vt 1 0
usemtl New Material
f 76/76/76 75/75/75 73/73/73
f 74/74/74 76/76/76 73/73/73
f 78/78/78 77/77/77 81/81/81
f 82/82/82 78/78/78 81/81/81
f 80/80/80 79/79/79 83/83/83
f 84/84/84 80/80/80 83/83/83
f 87/87/87 86/86/86 85/85/85
f 88/88/88 87/87/87 85/85/85
f 91/91/91 90/90/90 89/89/89
f 92/92/92 91/91/91 89/89/89
f 95/95/95 94/94/94 93/93/93
f 96/96/96 95/95/95 93/93/93
v -30.35153 -209.6059 1195.456
v -30.32456 -209.7589 1196.035
v -31.10632 -205.3253 1196.621
v -31.07935 -205.4782 1197.2
v -30.51543 -205.2211 1196.621
v -30.48847 -205.3741 1197.2
v -29.76064 -209.5017 1195.456
v -29.73368 -209.6547 1196.035
v -31.10632 -205.3253 1196.621
v -31.07935 -205.4782 1197.2
v -30.51543 -205.2211 1196.621
v -30.48847 -205.3741 1197.2
v -29.76064 -209.5017 1195.456
v -30.35153 -209.6059 1195.456
v -30.32456 -209.7589 1196.035
v -29.73368 -209.6547 1196.035
v -30.32456 -209.7589 1196.035
v -31.07935 -205.4782 1197.2
v -30.48847 -205.3741 1197.2
v -29.73368 -209.6547 1196.035
v -29.76064 -209.5017 1195.456
v -30.51543 -205.2211 1196.621
v -31.10632 -205.3253 1196.621
v -30.35153 -209.6059 1195.456
vn -0.1290338 -0.02275215 -2.440519E-09
vn -0.1290338 -0.02275215 -2.440519E-09
vn -0.1290338 -0.02275215 -2.440519E-09
vn -0.1290338 -0.02275215 -2.440519E-09
vn -0.1648267 0.9347781 0.2543369
vn -0.1648267 0.9347781 0.2543369
vn 0.1290338 0.02275215 2.440519E-09
vn 0.1290338 0.02275215 2.440519E-09
vn -0.1648267 0.9347781 0.2543369
vn -0.1648267 0.9347781 0.2543369
vn 0.1290338 0.02275215 2.440519E-09
vn 0.1290338 0.02275215 2.440519E-09
vn 0.1648267 -0.9347781 -0.2543369
vn 0.1648267 -0.9347781 -0.2543369
vn 0.1648267 -0.9347781 -0.2543369
vn 0.1648267 -0.9347781 -0.2543369
vn 0.005888687 -0.0333964 0.1265598
vn 0.005888687 -0.0333964 0.1265598
vn 0.005888687 -0.0333964 0.1265598
vn 0.005888687 -0.0333964 0.1265598
vn -0.005888687 0.0333964 -0.1265598
vn -0.005888687 0.0333964 -0.1265598
vn -0.005888687 0.0333964 -0.1265598
vn -0.005888687 0.0333964 -0.1265598
vt 0 0
vt 1 0
vt 0 1
vt 1 1
vt 0 1
vt 1 1
vt 0 1
vt 1 1
vt 0 0
vt 1 0
vt 0 0
vt 1 0
vt 0 0
vt 0 1
vt 1 1
vt 1 0
vt 0 0
vt 0 1
vt 1 1
vt 1 0
vt 0 0
vt 0 1
vt 1 1
vt 1 0
usemtl New Material
f 100/100/100 99/99/99 97/97/97
f 98/98/98 100/100/100 97/97/97
f 102/102/102 101/101/101 105/105/105
f 106/106/106 102/102/102 105/105/105
f 104/104/104 103/103/103 107/107/107
f 108/108/108 104/104/104 107/107/107
f 111/111/111 110/110/110 109/109/109
f 112/112/112 111/111/111 109/109/109
f 115/115/115 114/114/114 113/113/113
f 116/116/116 115/115/115 113/113/113
f 119/119/119 118/118/118 117/117/117
f 120/120/120 119/119/119 117/117/117
v -31.05405 -205.6217 1196.618
v -31.05405 -205.6217 1197.503
v -31.10614 -205.3263 1196.618
v -31.10614 -205.3263 1197.503
v -30.51526 -205.2221 1196.618
v -30.51526 -205.2221 1197.503
v -30.46316 -205.5175 1196.618
v -30.46316 -205.5175 1197.503
v -31.10614 -205.3263 1196.618
v -31.10614 -205.3263 1197.503
v -30.51526 -205.2221 1196.618
v -30.51526 -205.2221 1197.503
v -30.46316 -205.5175 1196.618
v -31.05405 -205.6217 1196.618
v -31.05405 -205.6217 1197.503
v -30.46316 -205.5175 1197.503
v -31.05405 -205.6217 1197.503
v -31.10614 -205.3263 1197.503
v -30.51526 -205.2221 1197.503
v -30.46316 -205.5175 1197.503
v -30.46316 -205.5175 1196.618
v -30.51526 -205.2221 1196.618
v -31.10614 -205.3263 1196.618
v -31.05405 -205.6217 1196.618
vn -0.5320857 -0.09382111 -3.019128E-08
vn -0.5320857 -0.09382111 -3.019128E-08
vn -0.5320857 -0.09382111 -3.019128E-08
vn -0.5320857 -0.09382111 -3.019128E-08
vn -0.04691055 0.2660428 0
vn -0.04691055 0.2660428 0
vn 0.5320857 0.09382111 3.019128E-08
vn 0.5320857 0.09382111 3.019128E-08
vn -0.04691055 0.2660428 0
vn -0.04691055 0.2660428 0
vn 0.5320857 0.09382111 3.019128E-08
vn 0.5320857 0.09382111 3.019128E-08
vn 0.04691055 -0.2660428 0
vn 0.04691055 -0.2660428 0
vn 0.04691055 -0.2660428 0
vn 0.04691055 -0.2660428 0
vn -4.453213E-08 0 0.7969336
vn -4.453213E-08 0 0.7969336
vn -4.453213E-08 0 0.7969336
vn -4.453213E-08 0 0.7969336
vn 4.453213E-08 0 -0.7969336
vn 4.453213E-08 0 -0.7969336
vn 4.453213E-08 0 -0.7969336
vn 4.453213E-08 0 -0.7969336
vt 0 0
vt 1 0
vt 0 1
vt 1 1
vt 0 1
vt 1 1
vt 0 1
vt 1 1
vt 0 0
vt 1 0
vt 0 0
vt 1 0
vt 0 0
vt 0 1
vt 1 1
vt 1 0
vt 0 0
vt 0 1
vt 1 1
vt 1 0
vt 0 0
vt 0 1
vt 1 1
vt 1 0
usemtl New Material
f 124/124/124 123/123/123 121/121/121
f 122/122/122 124/124/124 121/121/121
f 126/126/126 125/125/125 129/129/129
f 130/130/130 126/126/126 129/129/129
f 128/128/128 127/127/127 131/131/131
f 132/132/132 128/128/128 131/131/131
f 135/135/135 134/134/134 133/133/133
f 136/136/136 135/135/135 133/133/133
f 139/139/139 138/138/138 137/137/137
f 140/140/140 139/139/139 137/137/137
f 143/143/143 142/142/142 141/141/141
f 144/144/144 143/143/143 141/141/141
