# Export of SampleScene
# from Aaro4130 OBJ Exporter v2.0
mtllib aplus11.mtl
v -280.1483 -780.637 -7.608008
v -280.1483 -780.637 -5.808008
v -280.0442 -780.0461 -7.608008
v -280.0442 -780.0461 -5.808008
v -279.4533 -780.1503 -7.608008
v -279.4533 -780.1503 -5.808008
v -279.5575 -780.7412 -7.608008
v -279.5575 -780.7412 -5.808008
v -280.0442 -780.0461 -7.608008
v -280.0442 -780.0461 -5.808008
v -279.4533 -780.1503 -7.608008
v -279.4533 -780.1503 -5.808008
v -279.5575 -780.7412 -7.608008
v -280.1483 -780.637 -7.608008
v -280.1483 -780.637 -5.808008
v -279.5575 -780.7412 -5.808008
v -280.1483 -780.637 -5.808008
v -280.0442 -780.0461 -5.808008
v -279.4533 -780.1503 -5.808008
v -279.5575 -780.7412 -5.808008
v -279.5575 -780.7412 -7.608008
v -279.4533 -780.1503 -7.608008
v -280.0442 -780.0461 -7.608008
v -280.1483 -780.637 -7.608008
vn -0.2969307 0.05235692 -1.684826E-08
vn -0.2969307 0.05235692 -1.684826E-08
vn -0.2969307 0.05235692 -1.684826E-08
vn -0.2969307 0.05235692 -1.684826E-08
vn 0.05235692 0.2969307 0
vn 0.05235692 0.2969307 0
vn 0.2969307 -0.05235692 1.684826E-08
vn 0.2969307 -0.05235692 1.684826E-08
vn 0.05235692 0.2969307 0
vn 0.05235692 0.2969307 0
vn 0.2969307 -0.05235692 1.684826E-08
vn 0.2969307 -0.05235692 1.684826E-08
vn -0.05235692 -0.2969307 0
vn -0.05235692 -0.2969307 0
vn -0.05235692 -0.2969307 0
vn -0.05235692 -0.2969307 0
vn -5.054478E-08 0 0.9045341
vn -5.054478E-08 0 0.9045341
vn -5.054478E-08 0 0.9045341
vn -5.054478E-08 0 0.9045341
vn 5.054478E-08 0 -0.9045341
vn 5.054478E-08 0 -0.9045341
vn 5.054478E-08 0 -0.9045341
vn 5.054478E-08 0 -0.9045341
vt 0 0
vt 1 0
vt 0 1
vt 1 1
vt 0 1
vt 1 1
vt 0 1
vt 1 1
vt 0 0
vt 1 0
vt 0 0
vt 1 0
vt 0 0
vt 0 1
vt 1 1
vt 1 0
vt 0 0
vt 0 1
vt 1 1
vt 1 0
vt 0 0
vt 0 1
vt 1 1
vt 1 0
usemtl New Material
f 4/4/4 3/3/3 1/1/1
f 2/2/2 4/4/4 1/1/1
f 6/6/6 5/5/5 9/9/9
f 10/10/10 6/6/6 9/9/9
f 8/8/8 7/7/7 11/11/11
f 12/12/12 8/8/8 11/11/11
f 15/15/15 14/14/14 13/13/13
f 16/16/16 15/15/15 13/13/13
f 19/19/19 18/18/18 17/17/17
f 20/20/20 19/19/19 17/17/17
f 23/23/23 22/22/22 21/21/21
f 24/24/24 23/23/23 21/21/21
v -279.9369 -779.4375 -4.672481
v -279.9369 -779.4375 -3.78748
v -279.8848 -779.142 -4.672481
v -279.8848 -779.142 -3.78748
v -279.2939 -779.2462 -4.672481
v -279.2939 -779.2462 -3.78748
v -279.3459 -779.5417 -4.672481
v -279.3459 -779.5417 -3.78748
v -279.8848 -779.142 -4.672481
v -279.8848 -779.142 -3.78748
v -279.2939 -779.2462 -4.672481
v -279.2939 -779.2462 -3.78748
v -279.3459 -779.5417 -4.672481
v -279.9369 -779.4375 -4.672481
v -279.9369 -779.4375 -3.78748
v -279.3459 -779.5417 -3.78748
v -279.9369 -779.4375 -3.78748
v -279.8848 -779.142 -3.78748
v -279.2939 -779.2462 -3.78748
v -279.3459 -779.5417 -3.78748
v -279.3459 -779.5417 -4.672481
v -279.2939 -779.2462 -4.672481
v -279.8848 -779.142 -4.672481
v -279.9369 -779.4375 -4.672481
vn -0.5320857 0.09382111 -3.019128E-08
vn -0.5320857 0.09382111 -3.019128E-08
vn -0.5320857 0.09382111 -3.019128E-08
vn -0.5320857 0.09382111 -3.019128E-08
vn 0.04691055 0.2660428 0
vn 0.04691055 0.2660428 0
vn 0.5320857 -0.09382111 3.019128E-08
vn 0.5320857 -0.09382111 3.019128E-08
vn 0.04691055 0.2660428 0
vn 0.04691055 0.2660428 0
vn 0.5320857 -0.09382111 3.019128E-08
vn 0.5320857 -0.09382111 3.019128E-08
vn -0.04691055 -0.2660428 0
vn -0.04691055 -0.2660428 0
vn -0.04691055 -0.2660428 0
vn -0.04691055 -0.2660428 0
vn -4.453213E-08 0 0.7969336
vn -4.453213E-08 0 0.7969336
vn -4.453213E-08 0 0.7969336
vn -4.453213E-08 0 0.7969336
vn 4.453213E-08 0 -0.7969336
vn 4.453213E-08 0 -0.7969336
vn 4.453213E-08 0 -0.7969336
vn 4.453213E-08 0 -0.7969336
vt 0 0
vt 1 0
vt 0 1
vt 1 1
vt 0 1
vt 1 1
vt 0 1
vt 1 1
vt 0 0
vt 1 0
vt 0 0
vt 1 0
vt 0 0
vt 0 1
vt 1 1
vt 1 0
vt 0 0
vt 0 1
vt 1 1
vt 1 0
vt 0 0
vt 0 1
vt 1 1
vt 1 0
usemtl New Material
f 28/28/28 27/27/27 25/25/25
f 26/26/26 28/28/28 25/25/25
f 30/30/30 29/29/29 33/33/33
f 34/34/34 30/30/30 33/33/33
f 32/32/32 31/31/31 35/35/35
f 36/36/36 32/32/32 35/35/35
f 39/39/39 38/38/38 37/37/37
f 40/40/40 39/39/39 37/37/37
f 43/43/43 42/42/42 41/41/41
f 44/44/44 43/43/43 41/41/41
f 47/47/47 46/46/46 45/45/45
f 48/48/48 47/47/47 45/45/45
v -280.4093 -782.1172 -5.129981
v -280.4093 -782.1172 -3.32998
v -280.3051 -781.5263 -5.129981
v -280.3051 -781.5263 -3.32998
v -279.7143 -781.6305 -5.129981
v -279.7143 -781.6305 -3.32998
v -279.8185 -782.2214 -5.129981
v -279.8185 -782.2214 -3.32998
v -280.3051 -781.5263 -5.129981
v -280.3051 -781.5263 -3.32998
v -279.7143 -781.6305 -5.129981
v -279.7143 -781.6305 -3.32998
v -279.8185 -782.2214 -5.129981
v -280.4093 -782.1172 -5.129981
v -280.4093 -782.1172 -3.32998
v -279.8185 -782.2214 -3.32998
v -280.4093 -782.1172 -3.32998
v -280.3051 -781.5263 -3.32998
v -279.7143 -781.6305 -3.32998
v -279.8185 -782.2214 -3.32998
v -279.8185 -782.2214 -5.129981
v -279.7143 -781.6305 -5.129981
v -280.3051 -781.5263 -5.129981
v -280.4093 -782.1172 -5.129981
vn -0.2969307 0.05235692 -1.684826E-08
vn -0.2969307 0.05235692 -1.684826E-08
vn -0.2969307 0.05235692 -1.684826E-08
vn -0.2969307 0.05235692 -1.684826E-08
vn 0.05235692 0.2969307 0
vn 0.05235692 0.2969307 0
vn 0.2969307 -0.05235692 1.684826E-08
vn 0.2969307 -0.05235692 1.684826E-08
vn 0.05235692 0.2969307 0
vn 0.05235692 0.2969307 0
vn 0.2969307 -0.05235692 1.684826E-08
vn 0.2969307 -0.05235692 1.684826E-08
vn -0.05235692 -0.2969307 0
vn -0.05235692 -0.2969307 0
vn -0.05235692 -0.2969307 0
vn -0.05235692 -0.2969307 0
vn -5.054478E-08 0 0.9045341
vn -5.054478E-08 0 0.9045341
vn -5.054478E-08 0 0.9045341
vn -5.054478E-08 0 0.9045341
vn 5.054478E-08 0 -0.9045341
vn 5.054478E-08 0 -0.9045341
vn 5.054478E-08 0 -0.9045341
vn 5.054478E-08 0 -0.9045341
vt 0 0
vt 1 0
vt 0 1
vt 1 1
vt 0 1
vt 1 1
vt 0 1
vt 1 1
vt 0 0
vt 1 0
vt 0 0
vt 1 0
vt 0 0
vt 0 1
vt 1 1
vt 1 0
vt 0 0
vt 0 1
vt 1 1
vt 1 0
vt 0 0
vt 0 1
vt 1 1
vt 1 0
usemtl New Material
f 52/52/52 51/51/51 49/49/49
f 50/50/50 52/52/52 49/49/49
f 54/54/54 53/53/53 57/57/57
f 58/58/58 54/54/54 57/57/57
f 56/56/56 55/55/55 59/59/59
f 60/60/60 56/56/56 59/59/59
f 63/63/63 62/62/62 61/61/61
f 64/64/64 63/63/63 61/61/61
f 67/67/67 66/66/66 65/65/65
f 68/68/68 67/67/67 65/65/65
f 71/71/71 70/70/70 69/69/69
f 72/72/72 71/71/71 69/69/69
v -280.6394 -783.4218 -5.834095
v -280.6663 -783.5746 -5.25454
v -279.8846 -779.1411 -4.66941
v -279.9115 -779.294 -4.089855
v -279.2937 -779.2453 -4.66941
v -279.3206 -779.3982 -4.089855
v -280.0485 -783.5259 -5.834095
v -280.0754 -783.6788 -5.25454
v -279.8846 -779.1411 -4.66941
v -279.9115 -779.294 -4.089855
v -279.2937 -779.2453 -4.66941
v -279.3206 -779.3982 -4.089855
v -280.0485 -783.5259 -5.834095
v -280.6394 -783.4218 -5.834095
v -280.6663 -783.5746 -5.25454
v -280.0754 -783.6788 -5.25454
v -280.6663 -783.5746 -5.25454
v -279.9115 -779.294 -4.089855
v -279.3206 -779.3982 -4.089855
v -280.0754 -783.6788 -5.25454
v -280.0485 -783.5259 -5.834095
v -279.2937 -779.2453 -4.66941
v -279.8846 -779.1411 -4.66941
v -280.6394 -783.4218 -5.834095
vn -0.1290338 0.02275215 -4.728505E-10
vn -0.1290338 0.02275215 -4.728505E-10
vn -0.1290338 0.02275215 -4.728505E-10
vn -0.1290338 0.02275215 -4.728505E-10
vn 0.1648267 0.9347781 0.2543369
vn 0.1648267 0.9347781 0.2543369
vn 0.1290338 -0.02275215 4.728505E-10
vn 0.1290338 -0.02275215 4.728505E-10
vn 0.1648267 0.9347781 0.2543369
vn 0.1648267 0.9347781 0.2543369
vn 0.1290338 -0.02275215 4.728505E-10
vn 0.1290338 -0.02275215 4.728505E-10
vn -0.1648267 -0.9347781 -0.2543369
vn -0.1648267 -0.9347781 -0.2543369
vn -0.1648267 -0.9347781 -0.2543369
vn -0.1648267 -0.9347781 -0.2543369
vn -0.005888689 -0.0333964 0.1265598
vn -0.005888689 -0.0333964 0.1265598
vn -0.005888689 -0.0333964 0.1265598
vn -0.005888689 -0.0333964 0.1265598
vn 0.005888689 0.0333964 -0.1265598
vn 0.005888689 0.0333964 -0.1265598
vn 0.005888689 0.0333964 -0.1265598
vn 0.005888689 0.0333964 -0.1265598
vt 0 0
vt 1 0
vt 0 1
vt 1 1
vt 0 1
vt 1 1
vt 0 1
vt 1 1
vt 0 0
vt 1 0
vt 0 0
vt 1 0
vt 0 0
vt 0 1
vt 1 1
vt 1 0
vt 0 0
vt 0 1
vt 1 1
vt 1 0
vt 0 0
vt 0 1
vt 1 1
vt 1 0
usemtl New Material
f 76/76/76 75/75/75 73/73/73
f 74/74/74 76/76/76 73/73/73
f 78/78/78 77/77/77 81/81/81
f 82/82/82 78/78/78 81/81/81
f 80/80/80 79/79/79 83/83/83
f 84/84/84 80/80/80 83/83/83
f 87/87/87 86/86/86 85/85/85
f 88/88/88 87/87/87 85/85/85
f 91/91/91 90/90/90 89/89/89
f 92/92/92 91/91/91 89/89/89
f 95/95/95 94/94/94 93/93/93
f 96/96/96 95/95/95 93/93/93
v -279.94 -779.4553 -7.008008
v -280.2525 -781.2279 -7.008008
v -279.94 -779.4553 -6.408008
v -280.2525 -781.2279 -6.408008
v -279.3491 -779.5594 -6.408008
v -279.6617 -781.3321 -6.408008
v -279.3491 -779.5594 -7.008008
v -279.6617 -781.3321 -7.008008
v -279.94 -779.4553 -6.408008
v -280.2525 -781.2279 -6.408008
v -279.3491 -779.5594 -6.408008
v -279.6617 -781.3321 -6.408008
v -279.3491 -779.5594 -7.008008
v -279.94 -779.4553 -7.008008
v -280.2525 -781.2279 -7.008008
v -279.6617 -781.3321 -7.008008
v -280.2525 -781.2279 -7.008008
v -280.2525 -781.2279 -6.408008
v -279.6617 -781.3321 -6.408008
v -279.6617 -781.3321 -7.008008
v -279.3491 -779.5594 -7.008008
v -279.3491 -779.5594 -6.408008
v -279.94 -779.4553 -6.408008
v -279.94 -779.4553 -7.008008
vn -0.2969307 0.05235692 -2.695721E-08
vn -0.2969307 0.05235692 -2.695721E-08
vn -0.2969307 0.05235692 -2.695721E-08
vn -0.2969307 0.05235692 -2.695721E-08
vn 0 -2.695722E-08 0.3015114
vn 0 -2.695722E-08 0.3015114
vn 0.2969307 -0.05235692 2.695721E-08
vn 0.2969307 -0.05235692 2.695721E-08
vn 0 -2.695722E-08 0.3015114
vn 0 -2.695722E-08 0.3015114
vn 0.2969307 -0.05235692 2.695721E-08
vn 0.2969307 -0.05235692 2.695721E-08
vn 0 2.695722E-08 -0.3015114
vn 0 2.695722E-08 -0.3015114
vn 0 2.695722E-08 -0.3015114
vn 0 2.695722E-08 -0.3015114
vn -0.1570708 -0.8907923 0
vn -0.1570708 -0.8907923 0
vn -0.1570708 -0.8907923 0
vn -0.1570708 -0.8907923 0
vn 0.1570708 0.8907923 0
vn 0.1570708 0.8907923 0
vn 0.1570708 0.8907923 0
vn 0.1570708 0.8907923 0
vt 0 0
vt 1 0
vt 0 1
vt 1 1
vt 0 1
vt 1 1
vt 0 1
vt 1 1
vt 0 0
vt 1 0
vt 0 0
vt 1 0
vt 0 0
vt 0 1
vt 1 1
vt 1 0
vt 0 0
vt 0 1
vt 1 1
vt 1 0
vt 0 0
vt 0 1
vt 1 1
vt 1 0
usemtl New Material
f 100/100/100 99/99/99 97/97/97
f 98/98/98 100/100/100 97/97/97
f 102/102/102 101/101/101 105/105/105
f 106/106/106 102/102/102 105/105/105
f 104/104/104 103/103/103 107/107/107
f 108/108/108 104/104/104 107/107/107
f 111/111/111 110/110/110 109/109/109
f 112/112/112 111/111/111 109/109/109
f 115/115/115 114/114/114 113/113/113
f 116/116/116 115/115/115 113/113/113
f 119/119/119 118/118/118 117/117/117
f 120/120/120 119/119/119 117/117/117
v -280.6663 -783.5746 -3.199439
v -280.6394 -783.4218 -2.619884
v -279.9115 -779.294 -4.364125
v -279.8846 -779.1411 -3.78457
v -279.3206 -779.3982 -4.364125
v -279.2937 -779.2453 -3.78457
v -280.0754 -783.6788 -3.199439
v -280.0485 -783.5259 -2.619884
v -279.9115 -779.294 -4.364125
v -279.8846 -779.1411 -3.78457
v -279.3206 -779.3982 -4.364125
v -279.2937 -779.2453 -3.78457
v -280.0754 -783.6788 -3.199439
v -280.6663 -783.5746 -3.199439
v -280.6394 -783.4218 -2.619884
v -280.0485 -783.5259 -2.619884
v -280.6394 -783.4218 -2.619884
v -279.8846 -779.1411 -3.78457
v -279.2937 -779.2453 -3.78457
v -280.0485 -783.5259 -2.619884
v -280.0754 -783.6788 -3.199439
v -279.3206 -779.3982 -4.364125
v -279.9115 -779.294 -4.364125
v -280.6663 -783.5746 -3.199439
vn -0.1290338 0.02275215 -6.833451E-09
vn -0.1290338 0.02275215 -6.833451E-09
vn -0.1290338 0.02275215 -6.833451E-09
vn -0.1290338 0.02275215 -6.833451E-09
vn 0.1648267 0.934778 -0.2543371
vn 0.1648267 0.934778 -0.2543371
vn 0.1290338 -0.02275215 6.833451E-09
vn 0.1290338 -0.02275215 6.833451E-09
vn 0.1648267 0.934778 -0.2543371
vn 0.1648267 0.934778 -0.2543371
vn 0.1290338 -0.02275215 6.833451E-09
vn 0.1290338 -0.02275215 6.833451E-09
vn -0.1648267 -0.934778 0.2543371
vn -0.1648267 -0.934778 0.2543371
vn -0.1648267 -0.934778 0.2543371
vn -0.1648267 -0.934778 0.2543371
vn 0.005888686 0.03339642 0.1265598
vn 0.005888686 0.03339642 0.1265598
vn 0.005888686 0.03339642 0.1265598
vn 0.005888686 0.03339642 0.1265598
vn -0.005888686 -0.03339642 -0.1265598
vn -0.005888686 -0.03339642 -0.1265598
vn -0.005888686 -0.03339642 -0.1265598
vn -0.005888686 -0.03339642 -0.1265598
vt 0 0
vt 1 0
vt 0 1
vt 1 1
vt 0 1
vt 1 1
vt 0 1
vt 1 1
vt 0 0
vt 1 0
vt 0 0
vt 1 0
vt 0 0
vt 0 1
vt 1 1
vt 1 0
vt 0 0
vt 0 1
vt 1 1
vt 1 0
vt 0 0
vt 0 1
vt 1 1
vt 1 0
usemtl New Material
f 124/124/124 123/123/123 121/121/121
f 122/122/122 124/124/124 121/121/121
f 126/126/126 125/125/125 129/129/129
f 130/130/130 126/126/126 129/129/129
f 128/128/128 127/127/127 131/131/131
f 132/132/132 128/128/128 131/131/131
f 135/135/135 134/134/134 133/133/133
f 136/136/136 135/135/135 133/133/133
f 139/139/139 138/138/138 137/137/137
f 140/140/140 139/139/139 137/137/137
f 143/143/143 142/142/142 141/141/141
f 144/144/144 143/143/143 141/141/141
