# Export of SampleScene
# from Aaro4130 OBJ Exporter v2.0
mtllib carpet7.mtl
v 64.19379 0.48 481.256
v 64.19379 0.5025761 481.256
v 63.85 0.5025761 481.2271
v 63.85 0.5025761 481.2271
v 63.85 0.48 481.2271
v 63.85 0.48 481.2271
v 63.85 0.5025761 481.2271
v 63.5062 0.5025761 481.256
v 63.5062 0.5025761 481.256
v 63.5062 0.48 481.256
v 63.5062 0.48 483.8439
v 63.5062 0.5025761 483.8439
v 63.85 0.5025761 483.8728
v 63.85 0.5025761 483.8728
v 63.85 0.48 483.8728
v 63.85 0.48 483.8728
v 63.85 0.5025761 483.8728
v 64.19379 0.5025761 483.8439
v 64.19379 0.5025761 483.8439
v 64.19379 0.48 483.8439
v 64.19379 0.48 483.8439
v 64.19379 0.5025761 483.8439
v 64.52257 0.5025761 483.7585
v 64.52257 0.48 483.7585
v 64.52257 0.48 483.7585
v 64.52257 0.5025761 483.7585
v 64.82195 0.5025761 483.6202
v 64.82195 0.48 483.6202
v 64.82195 0.48 483.6202
v 64.82195 0.5025761 483.6202
v 65.07884 0.5025761 483.4352
v 65.07884 0.48 483.4352
v 65.07884 0.48 483.4352
v 65.07884 0.5025761 483.4352
v 65.28204 0.5025761 483.2114
v 65.28204 0.48 483.2114
v 65.28204 0.48 483.2114
v 65.28204 0.5025761 483.2114
v 65.42264 0.5025761 482.9588
v 65.42264 0.48 482.9588
v 65.42264 0.48 482.9588
v 65.42264 0.5025761 482.9588
v 65.49451 0.5025761 482.6883
v 65.49451 0.48 482.6883
v 65.49451 0.48 482.6883
v 65.49451 0.5025761 482.6883
v 65.49451 0.5025761 482.4117
v 65.49451 0.48 482.4117
v 65.49451 0.48 482.4117
v 65.49451 0.5025761 482.4117
v 65.42264 0.5025761 482.1412
v 65.42264 0.48 482.1412
v 65.42264 0.48 482.1412
v 65.42264 0.5025761 482.1412
v 65.28204 0.5025761 481.8885
v 65.28204 0.48 481.8885
v 65.28204 0.48 481.8885
v 65.28204 0.5025761 481.8885
v 65.07884 0.5025761 481.6648
v 65.07884 0.48 481.6648
v 65.07884 0.48 481.6648
v 65.07884 0.5025761 481.6648
v 64.82195 0.5025761 481.4798
v 64.82195 0.48 481.4798
v 64.82195 0.48 481.4798
v 64.82195 0.5025761 481.4798
v 64.52257 0.5025761 481.3415
v 64.52257 0.48 481.3415
v 64.52257 0.48 481.3415
v 64.52257 0.5025761 481.3415
v 64.19379 0.5025761 481.256
v 64.19379 0.48 481.256
v 63.5062 0.48 481.256
v 63.5062 0.5025761 481.256
v 63.17743 0.5025761 481.3415
v 63.17743 0.48 481.3415
v 63.17743 0.48 481.3415
v 63.17743 0.5025761 481.3415
v 62.87805 0.5025761 481.4798
v 62.87805 0.48 481.4798
v 62.87805 0.48 481.4798
v 62.87805 0.5025761 481.4798
v 62.62115 0.5025761 481.6648
v 62.62115 0.48 481.6648
v 62.62115 0.48 481.6648
v 62.62115 0.5025761 481.6648
v 62.41796 0.5025761 481.8885
v 62.41796 0.48 481.8885
v 62.41796 0.48 481.8885
v 62.41796 0.5025761 481.8885
v 62.27736 0.5025761 482.1412
v 62.27736 0.48 482.1412
v 62.27736 0.48 482.1412
v 62.27736 0.5025761 482.1412
v 62.20548 0.5025761 482.4117
v 62.20548 0.48 482.4117
v 62.20548 0.48 482.4117
v 62.20548 0.5025761 482.4117
v 62.20548 0.5025761 482.6883
v 62.20548 0.48 482.6883
v 62.20548 0.48 482.6883
v 62.20548 0.5025761 482.6883
v 62.27736 0.5025761 482.9588
v 62.27736 0.48 482.9588
v 62.27736 0.48 482.9588
v 62.27736 0.5025761 482.9588
v 62.41796 0.5025761 483.2114
v 62.41796 0.48 483.2114
v 62.41796 0.48 483.2114
v 62.41796 0.5025761 483.2114
v 62.62115 0.5025761 483.4352
v 62.62115 0.48 483.4352
v 62.62115 0.48 483.4352
v 62.62115 0.5025761 483.4352
v 62.87805 0.5025761 483.6202
v 62.87805 0.48 483.6202
v 62.87805 0.48 483.6202
v 62.87805 0.5025761 483.6202
v 63.17743 0.5025761 483.7585
v 63.17743 0.48 483.7585
v 63.17743 0.48 483.7585
v 63.17743 0.5025761 483.7585
v 63.5062 0.5025761 483.8439
v 63.5062 0.48 483.8439
v 64.19379 0.5025761 483.8439
v 63.85 0.5025761 482.55
v 64.52257 0.5025761 483.7585
v 63.85 0.5025761 483.8728
v 64.82195 0.5025761 483.6202
v 63.5062 0.5025761 483.8439
v 65.07884 0.5025761 483.4352
v 63.17743 0.5025761 483.7585
v 65.28204 0.5025761 483.2114
v 62.87805 0.5025761 483.6202
v 65.42264 0.5025761 482.9588
v 62.62115 0.5025761 483.4352
v 65.49451 0.5025761 482.6883
v 62.41796 0.5025761 483.2114
v 65.49451 0.5025761 482.4117
v 62.27736 0.5025761 482.9588
v 65.42264 0.5025761 482.1412
v 62.20548 0.5025761 482.6883
v 65.28204 0.5025761 481.8885
v 62.20548 0.5025761 482.4117
v 65.07884 0.5025761 481.6648
v 62.27736 0.5025761 482.1412
v 64.82195 0.5025761 481.4798
v 62.41796 0.5025761 481.8885
v 64.52257 0.5025761 481.3415
v 62.62115 0.5025761 481.6648
v 64.19379 0.5025761 481.256
v 62.87805 0.5025761 481.4798
v 63.85 0.5025761 481.2271
v 63.17743 0.5025761 481.3415
v 63.5062 0.5025761 481.256
vn 0.06530979 0 -0.4971056
vn 0.06530979 0 -0.4971056
vn 0.06530979 0 -0.4971056
vn 0.06530979 0 -0.4971056
vn 0.06530979 0 -0.4971056
vn -0.06530994 0 -0.4971056
vn -0.06530994 0 -0.4971056
vn -0.06530994 0 -0.4971056
vn -0.06530994 0 -0.4971056
vn -0.06530994 0 -0.4971056
vn -0.06530983 0 0.4971056
vn -0.06530983 0 0.4971056
vn -0.06530983 0 0.4971056
vn -0.06530983 0 0.4971056
vn -0.06530983 0 0.4971056
vn 0.06530703 0 0.4971059
vn 0.06530703 0 0.4971059
vn 0.06530703 0 0.4971059
vn 0.06530703 0 0.4971059
vn 0.06530703 0 0.4971059
vn 0.1930753 0 0.4753798
vn 0.1930753 0 0.4753798
vn 0.1930753 0 0.4753798
vn 0.1930753 0 0.4753798
vn 0.3124025 0 0.4328775
vn 0.3124025 0 0.4328775
vn 0.3124025 0 0.4328775
vn 0.3124025 0 0.4328775
vn 0.4180759 0 0.3714565
vn 0.4180759 0 0.3714565
vn 0.4180759 0 0.3714565
vn 0.4180759 0 0.3714565
vn 0.5054778 0 0.293801
vn 0.5054778 0 0.293801
vn 0.5054778 0 0.293801
vn 0.5054778 0 0.293801
vn 0.5707877 0 0.2033049
vn 0.5707877 0 0.2033049
vn 0.5707877 0 0.2033049
vn 0.5707877 0 0.2033049
vn 0.6111515 0 0.1039236
vn 0.6111515 0 0.1039236
vn 0.6111515 0 0.1039236
vn 0.6111515 0 0.1039236
vn 0.624805 0 7.448255E-08
vn 0.624805 0 7.448255E-08
vn 0.624805 0 7.448255E-08
vn 0.624805 0 7.448255E-08
vn 0.6111515 0 -0.1039234
vn 0.6111515 0 -0.1039234
vn 0.6111515 0 -0.1039234
vn 0.6111515 0 -0.1039234
vn 0.5707877 0 -0.2033048
vn 0.5707877 0 -0.2033048
vn 0.5707877 0 -0.2033048
vn 0.5707877 0 -0.2033048
vn 0.505478 0 -0.2938007
vn 0.505478 0 -0.2938007
vn 0.505478 0 -0.2938007
vn 0.505478 0 -0.2938007
vn 0.4180762 0 -0.3714563
vn 0.4180762 0 -0.3714563
vn 0.4180762 0 -0.3714563
vn 0.4180762 0 -0.3714563
vn 0.3124024 0 -0.4328775
vn 0.3124024 0 -0.4328775
vn 0.3124024 0 -0.4328775
vn 0.3124024 0 -0.4328775
vn 0.1930754 0 -0.4753797
vn 0.1930754 0 -0.4753797
vn 0.1930754 0 -0.4753797
vn 0.1930754 0 -0.4753797
vn -0.1930754 0 -0.4753798
vn -0.1930754 0 -0.4753798
vn -0.1930754 0 -0.4753798
vn -0.1930754 0 -0.4753798
vn -0.3124024 0 -0.4328775
vn -0.3124024 0 -0.4328775
vn -0.3124024 0 -0.4328775
vn -0.3124024 0 -0.4328775
vn -0.418076 0 -0.3714565
vn -0.418076 0 -0.3714565
vn -0.418076 0 -0.3714565
vn -0.418076 0 -0.3714565
vn -0.5054778 0 -0.2938008
vn -0.5054778 0 -0.2938008
vn -0.5054778 0 -0.2938008
vn -0.5054778 0 -0.2938008
vn -0.5707877 0 -0.2033048
vn -0.5707877 0 -0.2033048
vn -0.5707877 0 -0.2033048
vn -0.5707877 0 -0.2033048
vn -0.6111515 0 -0.1039233
vn -0.6111515 0 -0.1039233
vn -0.6111515 0 -0.1039233
vn -0.6111515 0 -0.1039233
vn -0.624805 0 -7.448255E-08
vn -0.624805 0 -7.448255E-08
vn -0.624805 0 -7.448255E-08
vn -0.624805 0 -7.448255E-08
vn -0.6111515 0 0.1039233
vn -0.6111515 0 0.1039233
vn -0.6111515 0 0.1039233
vn -0.6111515 0 0.1039233
vn -0.5707877 0 0.2033049
vn -0.5707877 0 0.2033049
vn -0.5707877 0 0.2033049
vn -0.5707877 0 0.2033049
vn -0.5054778 0 0.2938008
vn -0.5054778 0 0.2938008
vn -0.5054778 0 0.2938008
vn -0.5054778 0 0.2938008
vn -0.4180762 0 0.3714563
vn -0.4180762 0 0.3714563
vn -0.4180762 0 0.3714563
vn -0.4180762 0 0.3714563
vn -0.3124025 0 0.4328774
vn -0.3124025 0 0.4328774
vn -0.3124025 0 0.4328774
vn -0.3124025 0 0.4328774
vn -0.1930753 0 0.4753797
vn -0.1930753 0 0.4753797
vn -0.1930753 0 0.4753797
vn -0.1930753 0 0.4753797
vn 0 0.5998124 0
vn 0 0.5998124 0
vn 0 0.5998124 0
vn 0 0.5998124 0
vn 0 0.5998124 0
vn 0 0.5998124 0
vn 0 0.5998124 0
vn 0 0.5998124 0
vn 0 0.5998124 0
vn 0 0.5998124 0
vn 0 0.5998124 0
vn 0 0.5998124 0
vn 0 0.5998124 0
vn 0 0.5998124 0
vn 0 0.5998124 0
vn 0 0.5998124 0
vn 0 0.5998124 0
vn 0 0.5998124 0
vn 0 0.5998124 0
vn 0 0.5998124 0
vn 0 0.5998124 0
vn 0 0.5998124 0
vn 0 0.5998124 0
vn 0 0.5998124 0
vn 0 0.5998124 0
vn 0 0.5998124 0
vn 0 0.5998124 0
vn 0 0.5998124 0
vn 0 0.5998124 0
vn 0 0.5998124 0
vn 0 0.5998124 0
vt 0.01943479 0.602178
vt 0.02618101 0.6006822
vt 0.01560209 0.4999695
vt 0.01560209 0.4999695
vt 0.008692297 0.50003
vt 0.008692297 0.50003
vt 0.01560209 0.4999695
vt 0.02619368 0.3992581
vt 0.02619368 0.3992581
vt 0.01942229 0.3978807
vt 0.9805651 0.3978218
vt 0.973819 0.3993175
vt 0.9843978 0.5000306
vt 0.9843978 0.5000306
vt 0.9913077 0.4999696
vt 0.9913077 0.4999696
vt 0.9843978 0.5000306
vt 0.973807 0.600741
vt 0.973807 0.600741
vt 0.9805782 0.6021195
vt 0.9805782 0.6021195
vt 0.973807 0.600741
vt 0.9425075 0.6970506
vt 0.9488447 0.6998051
vt 0.9488447 0.6998051
vt 0.9425075 0.6970506
vt 0.8918688 0.7847464
vt 0.8974943 0.7887592
vt 0.8974943 0.7887592
vt 0.8918688 0.7847464
vt 0.8241032 0.8599983
vt 0.8287719 0.8650927
vt 0.8287719 0.8650927
vt 0.8241032 0.8599983
vt 0.7421732 0.9195162
vt 0.7456802 0.9254704
vt 0.7456802 0.9254704
vt 0.7421732 0.9195162
vt 0.6496586 0.9606993
vt 0.6518514 0.9672521
vt 0.6518514 0.9672521
vt 0.6496586 0.9606993
vt 0.5506034 0.9817477
vt 0.5513858 0.9886134
vt 0.5513858 0.9886134
vt 0.5506034 0.9817477
vt 0.4493367 0.9817414
vt 0.4486744 0.9886197
vt 0.4486744 0.9886197
vt 0.4493367 0.9817414
vt 0.3502842 0.9606805
vt 0.3482061 0.9672709
vt 0.3482061 0.9672709
vt 0.3502842 0.9606805
vt 0.2577747 0.9194859
vt 0.2543723 0.9255002
vt 0.2543723 0.9255002
vt 0.2577747 0.9194859
vt 0.1758518 0.8599575
vt 0.1712734 0.865133
vt 0.1712734 0.865133
vt 0.1758518 0.8599575
vt 0.1080961 0.7846975
vt 0.1025413 0.7888077
vt 0.1025413 0.7888077
vt 0.1080961 0.7846975
vt 0.05746815 0.6969946
vt 0.05118022 0.6998602
vt 0.05118022 0.6998602
vt 0.05746815 0.6969946
vt 0.02618101 0.6006822
vt 0.01943479 0.602178
vt 0.01942229 0.3978807
vt 0.02619368 0.3992581
vt 0.05749283 0.3029498
vt 0.0511559 0.3001944
vt 0.0511559 0.3001944
vt 0.05749283 0.3029498
vt 0.1081318 0.2152534
vt 0.1025061 0.2112408
vt 0.1025061 0.2112408
vt 0.1081318 0.2152534
vt 0.1758971 0.1400017
vt 0.1712286 0.1349072
vt 0.1712286 0.1349072
vt 0.1758971 0.1400017
vt 0.2578273 0.08048376
vt 0.2543202 0.07452983
vt 0.2543202 0.07452983
vt 0.2578273 0.08048376
vt 0.3503419 0.03930063
vt 0.348149 0.03274776
vt 0.348149 0.03274776
vt 0.3503419 0.03930063
vt 0.4493969 0.01825233
vt 0.4486146 0.0113867
vt 0.4486146 0.0113867
vt 0.4493969 0.01825233
vt 0.5506636 0.01825866
vt 0.5513259 0.0113804
vt 0.5513259 0.0113804
vt 0.5506636 0.01825866
vt 0.6497163 0.03931949
vt 0.6517937 0.03272914
vt 0.6517937 0.03272914
vt 0.6497163 0.03931949
vt 0.7422253 0.08051417
vt 0.7456279 0.07449985
vt 0.7456279 0.07449985
vt 0.7422253 0.08051417
vt 0.8241481 0.1400424
vt 0.8287268 0.134867
vt 0.8287268 0.134867
vt 0.8241481 0.1400424
vt 0.891904 0.2153026
vt 0.8974586 0.2111921
vt 0.8974586 0.2111921
vt 0.891904 0.2153026
vt 0.9425319 0.3030054
vt 0.9488198 0.3001395
vt 0.9488198 0.3001395
vt 0.9425319 0.3030054
vt 0.973819 0.3993175
vt 0.9805651 0.3978218
vt 0.973807 0.600741
vt 0.5000001 0.4999999
vt 0.9425075 0.6970506
vt 0.9843978 0.5000306
vt 0.8918688 0.7847464
vt 0.973819 0.3993175
vt 0.8241032 0.8599983
vt 0.9425319 0.3030054
vt 0.7421732 0.9195162
vt 0.891904 0.2153026
vt 0.6496586 0.9606993
vt 0.8241481 0.1400424
vt 0.5506034 0.9817477
vt 0.7422253 0.08051417
vt 0.4493367 0.9817414
vt 0.6497163 0.03931949
vt 0.3502842 0.9606805
vt 0.5506636 0.01825866
vt 0.2577747 0.9194859
vt 0.4493969 0.01825233
vt 0.1758518 0.8599575
vt 0.3503419 0.03930063
vt 0.1080961 0.7846975
vt 0.2578273 0.08048376
vt 0.05746815 0.6969946
vt 0.1758971 0.1400017
vt 0.02618101 0.6006822
vt 0.1081318 0.2152534
vt 0.01560209 0.4999695
vt 0.05749283 0.3029498
vt 0.02619368 0.3992581
usemtl rainbow
f 3/3/3 2/2/2 1/1/1
f 5/5/5 4/4/4 1/1/1
f 8/8/8 7/7/7 6/6/6
f 10/10/10 9/9/9 6/6/6
f 13/13/13 12/12/12 11/11/11
f 15/15/15 14/14/14 11/11/11
f 18/18/18 17/17/17 16/16/16
f 20/20/20 19/19/19 16/16/16
f 23/23/23 22/22/22 21/21/21
f 24/24/24 23/23/23 21/21/21
f 27/27/27 26/26/26 25/25/25
f 28/28/28 27/27/27 25/25/25
f 31/31/31 30/30/30 29/29/29
f 32/32/32 31/31/31 29/29/29
f 35/35/35 34/34/34 33/33/33
f 36/36/36 35/35/35 33/33/33
f 39/39/39 38/38/38 37/37/37
f 40/40/40 39/39/39 37/37/37
f 43/43/43 42/42/42 41/41/41
f 44/44/44 43/43/43 41/41/41
f 47/47/47 46/46/46 45/45/45
f 48/48/48 47/47/47 45/45/45
f 51/51/51 50/50/50 49/49/49
f 52/52/52 51/51/51 49/49/49
f 55/55/55 54/54/54 53/53/53
f 56/56/56 55/55/55 53/53/53
f 59/59/59 58/58/58 57/57/57
f 60/60/60 59/59/59 57/57/57
f 63/63/63 62/62/62 61/61/61
f 64/64/64 63/63/63 61/61/61
f 67/67/67 66/66/66 65/65/65
f 68/68/68 67/67/67 65/65/65
f 71/71/71 70/70/70 69/69/69
f 72/72/72 71/71/71 69/69/69
f 75/75/75 74/74/74 73/73/73
f 76/76/76 75/75/75 73/73/73
f 79/79/79 78/78/78 77/77/77
f 80/80/80 79/79/79 77/77/77
f 83/83/83 82/82/82 81/81/81
f 84/84/84 83/83/83 81/81/81
f 87/87/87 86/86/86 85/85/85
f 88/88/88 87/87/87 85/85/85
f 91/91/91 90/90/90 89/89/89
f 92/92/92 91/91/91 89/89/89
f 95/95/95 94/94/94 93/93/93
f 96/96/96 95/95/95 93/93/93
f 99/99/99 98/98/98 97/97/97
f 100/100/100 99/99/99 97/97/97
f 103/103/103 102/102/102 101/101/101
f 104/104/104 103/103/103 101/101/101
f 107/107/107 106/106/106 105/105/105
f 108/108/108 107/107/107 105/105/105
f 111/111/111 110/110/110 109/109/109
f 112/112/112 111/111/111 109/109/109
f 115/115/115 114/114/114 113/113/113
f 116/116/116 115/115/115 113/113/113
f 119/119/119 118/118/118 117/117/117
f 120/120/120 119/119/119 117/117/117
f 123/123/123 122/122/122 121/121/121
f 124/124/124 123/123/123 121/121/121
f 127/127/127 126/126/126 125/125/125
f 125/125/125 126/126/126 128/128/128
f 129/129/129 126/126/126 127/127/127
f 128/128/128 126/126/126 130/130/130
f 131/131/131 126/126/126 129/129/129
f 130/130/130 126/126/126 132/132/132
f 133/133/133 126/126/126 131/131/131
f 132/132/132 126/126/126 134/134/134
f 135/135/135 126/126/126 133/133/133
f 134/134/134 126/126/126 136/136/136
f 137/137/137 126/126/126 135/135/135
f 136/136/136 126/126/126 138/138/138
f 139/139/139 126/126/126 137/137/137
f 138/138/138 126/126/126 140/140/140
f 141/141/141 126/126/126 139/139/139
f 140/140/140 126/126/126 142/142/142
f 143/143/143 126/126/126 141/141/141
f 142/142/142 126/126/126 144/144/144
f 145/145/145 126/126/126 143/143/143
f 144/144/144 126/126/126 146/146/146
f 147/147/147 126/126/126 145/145/145
f 146/146/146 126/126/126 148/148/148
f 149/149/149 126/126/126 147/147/147
f 148/148/148 126/126/126 150/150/150
f 151/151/151 126/126/126 149/149/149
f 150/150/150 126/126/126 152/152/152
f 153/153/153 126/126/126 151/151/151
f 152/152/152 126/126/126 154/154/154
f 155/155/155 126/126/126 153/153/153
f 154/154/154 126/126/126 155/155/155
